<svg width="288" height="283" viewBox="0 0 288 283" fill="none" xmlns="http://www.w3.org/2000/svg">
    <g clip-path="url(#clip0_1_383)">
        <g clip-path="url(#clip1_1_383)">
            <path d="M278.86 216.636H247.692" stroke="black" stroke-width="0.223585"></path>
            <path d="M279.424 226.009L248.143 226.461" stroke="black" stroke-width="0.223585"></path>
            <path fill-rule="evenodd" clip-rule="evenodd" d="M194.677 153.668L235.771 154.393C255.819 160.751 271.817 168.259 278.042 190.08C280.289 202.628 278.226 207.075 279 216.591L279.639 226.492C281.015 247.852 281.579 269.373 279.959 291.332C278.659 310.39 282.749 330.725 283.153 349.783C282.504 365.763 278.627 377.615 277.882 391.586L257.92 390.029C248.755 338.386 254.05 321.487 251.851 297.72C248.521 268.727 248.509 240.563 247.379 212.119C235.072 234.322 222.197 255.768 215.119 284.944V289.775L221.827 320.717C225.426 325.767 235.742 348.684 228.252 361.75C236.799 411.79 240.838 462.96 240.352 513L240.991 529.29C242.35 551.478 251.271 573.676 250.893 597.962C250.514 622.249 246.14 646.018 242.907 669.19C241.683 695.913 245.374 700.659 244.45 710.406C243.525 720.153 238.076 719.706 232.521 719.644C226.86 719.58 221.366 718.622 221.171 714.891C215.324 713.25 207.072 719.994 146.427 717.644C143.802 717.289 143.607 713.43 143.365 710.69C146.069 709.952 148.872 709.611 151.877 710.074C172.043 700.217 191.858 695.986 212.564 677.494C213.544 676.479 214.37 675.116 214.161 671.426C211.551 634.866 203.594 596.914 200.426 560.272L199.468 554.523C196.668 547.367 194.188 538.292 190.844 534.4C189.487 526.947 188.926 519.495 184.137 512.042L168.692 511.722C161.682 531.521 160.732 539.568 156.555 552.926C153.3 572.465 156.218 580.762 151.557 596.365C146.858 612.097 136.813 632.519 128.879 647.79C124.016 660.893 117.319 674.73 115.092 686.837C114.453 694.636 115.749 700.659 114.825 710.406C113.9 720.153 108.451 719.706 102.896 719.644C97.2345 719.58 91.7408 718.622 91.5454 714.891C85.6989 713.25 77.4468 719.994 16.8022 717.644C14.1766 717.289 13.9819 713.43 13.7404 710.69C16.4442 709.952 19.2474 709.611 22.2515 710.074C42.4179 700.217 67.6626 694.708 88.3417 676.217C90.337 673.986 90.9728 671.529 91.7346 669.093L115.145 556.12C115.174 544.675 113.726 533.799 118.978 520.346L119.297 511.403L138.611 334.698L136.465 327.225C133.725 320.902 135.679 314.205 135.587 308.26C133.293 290.441 129.669 272.955 125.685 255.558C123.163 249.69 120.832 242.635 118.955 235.222C117.103 234.503 116.558 232.449 117.834 230.51C116.577 224.855 115.607 219.097 115.037 213.586L114.187 213.397L112.921 224.815C112.427 227.583 112.512 230.308 112.035 233.029C108.47 253.376 104.791 273.464 92.4017 309.364L88.2868 318.387C78.9578 345.41 65.3175 366.37 51.1753 386.624L33.5587 373.932C43.7392 348.764 50.9067 322.634 66.2733 299.122L69.0179 292.459C70.1002 272.937 72.5264 245.428 77.7385 223.849L79.7776 206.915C73.9987 180.157 86.4394 162.305 110.151 158.343L148.683 150.474" fill="#A13C2A"></path>
            <path d="M194.677 153.668L235.771 154.393C255.819 160.751 271.817 168.259 278.042 190.08C280.289 202.628 278.226 207.075 279 216.591L279.639 226.492C281.015 247.852 281.579 269.373 279.959 291.332C278.659 310.39 282.749 330.725 283.153 349.783C282.504 365.763 278.627 377.615 277.882 391.586L257.92 390.029C248.755 338.386 254.05 321.487 251.851 297.72C248.521 268.727 248.509 240.563 247.379 212.119C235.072 234.322 222.197 255.768 215.119 284.944V289.775L221.827 320.717C225.426 325.767 235.742 348.684 228.252 361.75C236.799 411.79 240.838 462.96 240.352 513L240.991 529.29C242.35 551.478 251.271 573.676 250.893 597.962C250.514 622.249 246.14 646.018 242.907 669.19C241.683 695.913 245.374 700.659 244.45 710.406C243.525 720.153 238.076 719.706 232.521 719.644C226.86 719.58 221.366 718.622 221.171 714.891C215.324 713.25 207.072 719.994 146.427 717.644C143.802 717.289 143.607 713.43 143.365 710.69C146.069 709.952 148.872 709.611 151.877 710.074C172.043 700.217 191.858 695.986 212.564 677.494C213.544 676.479 214.37 675.116 214.161 671.426C211.551 634.866 203.594 596.914 200.426 560.272L199.468 554.523C196.668 547.367 194.188 538.292 190.844 534.4C189.487 526.947 188.926 519.495 184.137 512.042L168.692 511.722C161.682 531.521 160.732 539.568 156.555 552.926C153.3 572.465 156.218 580.762 151.557 596.365C146.858 612.097 136.813 632.519 128.879 647.79C124.016 660.893 117.319 674.73 115.092 686.837C114.453 694.636 115.749 700.659 114.825 710.406C113.9 720.153 108.451 719.706 102.896 719.644C97.2345 719.58 91.7408 718.622 91.5454 714.891C85.6989 713.25 77.4468 719.994 16.8022 717.644C14.1766 717.289 13.9819 713.43 13.7404 710.69C16.4442 709.952 19.2474 709.611 22.2515 710.074C42.4179 700.217 67.6626 694.708 88.3417 676.217C90.337 673.986 90.9728 671.529 91.7346 669.093L115.145 556.12C115.174 544.675 113.726 533.799 118.978 520.346L119.297 511.403L138.611 334.698L136.465 327.225C133.725 320.902 135.679 314.205 135.587 308.26C133.293 290.441 129.669 272.955 125.685 255.558C123.163 249.69 120.832 242.635 118.955 235.222C117.103 234.503 116.558 232.449 117.834 230.51C116.577 224.855 115.607 219.097 115.037 213.586L114.187 213.397L112.921 224.815C112.427 227.583 112.512 230.308 112.035 233.029C108.47 253.376 104.791 273.464 92.4017 309.364L88.2868 318.387C78.9578 345.41 65.3175 366.37 51.1753 386.624L33.5587 373.932C43.7392 348.764 50.9067 322.634 66.2733 299.122L69.0179 292.459C70.1002 272.937 72.5264 245.428 77.7385 223.849L79.7776 206.915C73.9987 180.157 86.4394 162.305 110.151 158.343L148.683 150.474" stroke="black" stroke-width="0.447169" stroke-linecap="round" stroke-linejoin="round"></path>
            <path fill-rule="evenodd" clip-rule="evenodd" d="M116.377 157.223L150.382 150.423L198.513 146.585L235.572 154.247C228.607 189.397 204.77 201.966 177.153 202.579C150.996 203.156 138.78 196.439 130.24 187.368C122.122 178.747 117.81 165.222 116.377 157.223Z" fill="white" stroke="black" stroke-width="0.281007" stroke-linecap="round" stroke-linejoin="round"></path>
            <path d="M130.582 154.38C135.708 179.729 150.495 189.12 177.747 188.048C205.066 186.973 218.663 169.438 220.329 152.416C220.321 152.186 220.313 151.85 220.449 151.249" stroke="#0044AA" stroke-width="5.00754" stroke-linejoin="round"></path>
            <path d="M143.549 151.953C148.535 171.24 159.43 175.422 177.218 174.734C193.837 174.091 206.691 163.198 206.568 149.534C206.524 149.014 206.596 148.658 206.672 148.362" stroke="#308D57" stroke-width="3.07281"></path>
            <path d="M135.051 153.775C138.797 171.528 148.22 184.797 177.418 183.518C202.834 182.405 215.028 165.213 215.516 150.845C215.5 150.781 215.499 150.477 215.563 150.174" stroke="#C13C1B" stroke-width="3.07281"></path>
            <path d="M147.777 151.005C150.301 159.425 153.119 172.014 177.208 170.19C192.99 168.996 201.33 159.584 201.926 150.804C201.974 149.806 201.968 147.591 202.088 147.299" stroke="#0044AA" stroke-width="4.50679"></path>
            <path d="M139.194 152.703C144.237 176.682 162.033 180.083 177.687 179.153C198.953 177.883 210.395 164.716 210.984 150.777C211.003 150.521 210.998 149.567 211.12 149.18" stroke="#0044AA" stroke-width="4.50679"></path>
            <path d="M122.109 156.235C127.678 183.144 142.686 197.81 176.637 196.602C176.77 196.598 176.903 196.593 177.037 196.587C177.041 196.587 177.045 196.587 177.049 196.587C222.114 194.824 227.815 161.087 229.45 153.232" stroke="#FAC53A" stroke-width="11.2403"></path>
            <path fill-rule="evenodd" clip-rule="evenodd" d="M116.377 157.223L150.382 150.423L198.513 146.585L235.572 154.247C228.607 189.397 204.77 201.966 177.153 202.579C150.996 203.156 138.78 196.439 130.24 187.368C122.122 178.747 117.81 165.222 116.377 157.223Z" stroke="black" stroke-width="0.562014" stroke-linecap="round" stroke-linejoin="round"></path>
            <path fill-rule="evenodd" clip-rule="evenodd" d="M190.979 197.829C190.142 195.951 189.98 192.463 190.095 190.147C191.713 191.582 194.027 194.033 194.779 195.815C196.226 199.241 192.404 201.023 190.979 197.829Z" stroke="#C13C1B" stroke-width="0.281007"></path>
            <path fill-rule="evenodd" clip-rule="evenodd" d="M191.413 197.551C190.794 196.159 190.671 193.577 190.754 191.863C191.95 192.927 193.659 194.745 194.216 196.065C195.287 198.603 192.467 199.916 191.413 197.551Z" stroke="#C13C1B" stroke-width="0.281007"></path>
            <path d="M191.03 197.371C191.161 197.103 191.55 196.549 192.362 196.253C193.174 195.957 193.783 196.027 194.306 196.148" stroke="#C13C1B" stroke-width="0.281007" stroke-linecap="round" stroke-linejoin="round"></path>
            <path d="M190.803 194.707C191.005 194.431 191.515 194.133 191.777 194.044C192.062 193.948 192.7 193.91 193.006 193.947" stroke="#C13C1B" stroke-width="0.281007" stroke-linecap="round" stroke-linejoin="round"></path>
            <path fill-rule="evenodd" clip-rule="evenodd" d="M185.427 198.967C184.688 197.225 184.569 193.823 184.691 191.538C186.135 192.751 188.197 194.876 188.86 196.534C190.136 199.72 186.683 201.928 185.427 198.967Z" stroke="#C13C1B" stroke-width="0.281007"></path>
            <path fill-rule="evenodd" clip-rule="evenodd" d="M185.788 198.685C185.242 197.394 185.152 194.875 185.241 193.183C186.308 194.085 187.831 195.663 188.321 196.892C189.264 199.254 186.717 200.88 185.788 198.685Z" stroke="#C13C1B" stroke-width="0.281007"></path>
            <path d="M185.291 198.329C185.392 198.155 185.722 197.781 186.52 197.5C187.318 197.219 187.955 197.177 188.508 197.177" stroke="#C13C1B" stroke-width="0.281007" stroke-linecap="round" stroke-linejoin="round"></path>
            <path d="M185.252 195.668C185.428 195.487 185.921 195.257 186.182 195.176C186.465 195.088 187.12 194.991 187.441 194.977" stroke="#C13C1B" stroke-width="0.281007" stroke-linecap="round" stroke-linejoin="round"></path>
            <path fill-rule="evenodd" clip-rule="evenodd" d="M196.683 196.148C195.739 194.297 195.493 190.778 195.571 188.43C197.351 189.788 199.903 192.133 200.754 193.891C202.389 197.272 198.289 199.295 196.683 196.148Z" stroke="#C13C1B" stroke-width="0.281007"></path>
            <path fill-rule="evenodd" clip-rule="evenodd" d="M197.174 195.825C196.475 194.454 196.29 191.85 196.345 190.112C197.661 191.119 199.547 192.858 200.177 194.161C201.388 196.666 198.363 198.157 197.174 195.825Z" stroke="#C13C1B" stroke-width="0.281007"></path>
            <path d="M196.958 195.691C197.085 195.385 197.461 194.75 198.258 194.39C199.055 194.031 199.658 194.089 200.175 194.209" stroke="#C13C1B" stroke-width="0.281007" stroke-linecap="round" stroke-linejoin="round"></path>
            <path d="M196.499 193.055C196.693 192.736 197.189 192.382 197.446 192.272C197.724 192.153 198.352 192.085 198.654 192.116" stroke="#C13C1B" stroke-width="0.281007" stroke-linecap="round" stroke-linejoin="round"></path>
            <path fill-rule="evenodd" clip-rule="evenodd" d="M172.546 199.123C172.508 197.028 173.92 193.793 175.094 191.751C176.164 193.814 177.512 197.123 177.503 199.092C177.487 202.876 172.611 202.686 172.546 199.123Z" stroke="#C13C1B" stroke-width="0.281007"></path>
            <path fill-rule="evenodd" clip-rule="evenodd" d="M173.2 199.072C173.173 197.52 174.214 195.125 175.08 193.612C175.869 195.14 176.864 197.591 176.857 199.049C176.845 201.852 173.249 201.711 173.2 199.072Z" stroke="#C13C1B" stroke-width="0.281007"></path>
            <path d="M173.215 199C173.481 198.758 174.134 198.306 175.014 198.306C175.895 198.306 176.394 198.626 176.786 198.968" stroke="#C13C1B" stroke-width="0.281007" stroke-linecap="round" stroke-linejoin="round"></path>
            <path d="M173.844 196.402C174.173 196.176 174.786 196.046 175.066 196.05C175.37 196.054 175.956 196.258 176.206 196.418" stroke="#C13C1B" stroke-width="0.281007" stroke-linecap="round" stroke-linejoin="round"></path>
            <path fill-rule="evenodd" clip-rule="evenodd" d="M167.141 198.639C167.427 196.649 169.005 193.792 170.219 192.029C170.735 194.139 171.278 197.47 170.975 199.332C170.392 202.914 166.655 202.022 167.141 198.639Z" stroke="#C13C1B" stroke-width="0.281007"></path>
            <path fill-rule="evenodd" clip-rule="evenodd" d="M167.718 198.715C167.93 197.241 169.094 195.124 169.99 193.817C170.369 195.379 170.768 197.846 170.544 199.226C170.113 201.879 167.358 201.221 167.718 198.715Z" stroke="#C13C1B" stroke-width="0.281007"></path>
            <path d="M167.51 198.668C167.815 198.546 168.535 198.337 169.389 198.435C170.242 198.534 170.663 198.79 170.976 199.047" stroke="#C13C1B" stroke-width="0.281007" stroke-linecap="round" stroke-linejoin="round"></path>
            <path d="M168.243 196.212C168.608 196.113 169.231 196.099 169.504 196.13C169.799 196.163 170.33 196.345 170.543 196.465" stroke="#C13C1B" stroke-width="0.281007" stroke-linecap="round" stroke-linejoin="round"></path>
            <path fill-rule="evenodd" clip-rule="evenodd" d="M179.711 199.309C179.114 197.403 179.17 194.059 179.394 191.871C180.669 193.464 182.469 196.12 183 197.923C184.022 201.387 180.727 202.549 179.711 199.309Z" stroke="#C13C1B" stroke-width="0.281007"></path>
            <path fill-rule="evenodd" clip-rule="evenodd" d="M180.046 199.128C179.605 197.716 179.644 195.24 179.807 193.619C180.748 194.801 182.077 196.771 182.47 198.106C183.226 200.673 180.797 201.529 180.046 199.128Z" stroke="#C13C1B" stroke-width="0.281007"></path>
            <path d="M179.382 198.894C179.532 198.71 179.957 198.333 180.782 198.158C181.606 197.983 182.203 198.058 182.711 198.166" stroke="#C13C1B" stroke-width="0.281007" stroke-linecap="round" stroke-linejoin="round"></path>
            <path d="M179.614 196.25C179.834 196.069 180.361 195.887 180.628 195.838C180.918 195.784 181.556 195.784 181.858 195.823" stroke="#C13C1B" stroke-width="0.281007" stroke-linecap="round" stroke-linejoin="round"></path>
            <path fill-rule="evenodd" clip-rule="evenodd" d="M127.831 178.423C129.546 177.225 133.022 176.583 135.375 176.409C134.268 178.436 132.285 181.386 130.649 182.475C127.504 184.57 124.915 180.461 127.831 178.423Z" stroke="#C13C1B" stroke-width="0.281007"></path>
            <path fill-rule="evenodd" clip-rule="evenodd" d="M128.238 178.928C129.509 178.041 132.08 177.562 133.822 177.431C133 178.93 131.529 181.111 130.317 181.918C127.988 183.469 126.078 180.437 128.238 178.928Z" stroke="#C13C1B" stroke-width="0.281007"></path>
            <path d="M128.32 178.868C128.666 178.955 129.399 179.247 129.885 179.982C130.371 180.716 130.383 181.31 130.317 181.827" stroke="#C13C1B" stroke-width="0.281007" stroke-linecap="round" stroke-linejoin="round"></path>
            <path d="M130.835 177.962C131.203 178.111 131.649 178.549 131.8 178.785C131.964 179.041 132.118 179.643 132.125 179.941" stroke="#C13C1B" stroke-width="0.281007" stroke-linecap="round" stroke-linejoin="round"></path>
            <path fill-rule="evenodd" clip-rule="evenodd" d="M125.07 173.636C126.859 172.58 130.371 172.183 132.733 172.17C131.499 174.074 129.33 176.82 127.627 177.774C124.352 179.609 122.028 175.431 125.07 173.636Z" stroke="#C13C1B" stroke-width="0.281007"></path>
            <path fill-rule="evenodd" clip-rule="evenodd" d="M125.435 174.147C126.761 173.366 129.36 173.068 131.108 173.055C130.192 174.463 128.583 176.493 127.321 177.2C124.896 178.559 123.182 175.476 125.435 174.147Z" stroke="#C13C1B" stroke-width="0.281007"></path>
            <path d="M125.551 174.015C125.881 174.132 126.572 174.487 126.989 175.263C127.405 176.039 127.37 176.633 127.266 177.145" stroke="#C13C1B" stroke-width="0.281007" stroke-linecap="round" stroke-linejoin="round"></path>
            <path d="M128.142 173.354C128.489 173.535 128.888 174.013 129.017 174.263C129.157 174.532 129.259 175.148 129.241 175.446" stroke="#C13C1B" stroke-width="0.281007" stroke-linecap="round" stroke-linejoin="round"></path>
            <path fill-rule="evenodd" clip-rule="evenodd" d="M131.159 183.096C132.694 181.668 136.044 180.559 138.349 180.07C137.527 182.243 135.964 185.456 134.493 186.764C131.665 189.279 128.55 185.523 131.159 183.096Z" stroke="#C13C1B" stroke-width="0.281007"></path>
            <path fill-rule="evenodd" clip-rule="evenodd" d="M131.634 183.549C132.771 182.492 135.249 181.668 136.954 181.302C136.343 182.91 135.183 185.286 134.093 186.255C131.999 188.118 129.701 185.347 131.634 183.549Z" stroke="#C13C1B" stroke-width="0.281007"></path>
            <path d="M131.698 183.511C132.055 183.548 132.827 183.732 133.415 184.387C134.003 185.043 134.098 185.627 134.105 186.148" stroke="#C13C1B" stroke-width="0.281007" stroke-linecap="round" stroke-linejoin="round"></path>
            <path d="M134.052 182.245C134.439 182.339 134.946 182.708 135.13 182.92C135.33 183.148 135.569 183.721 135.617 184.014" stroke="#C13C1B" stroke-width="0.281007" stroke-linecap="round" stroke-linejoin="round"></path>
            <path fill-rule="evenodd" clip-rule="evenodd" d="M120.853 163.616C122.642 162.811 126.097 162.662 128.412 162.777C127.138 164.338 124.922 166.567 123.22 167.29C119.95 168.681 117.812 164.985 120.853 163.616Z" stroke="#C13C1B" stroke-width="0.281007"></path>
            <path fill-rule="evenodd" clip-rule="evenodd" d="M121.147 164.025C122.473 163.43 125.031 163.316 126.744 163.4C125.799 164.552 124.155 166.199 122.894 166.735C120.471 167.764 118.894 165.039 121.147 164.025Z" stroke="#C13C1B" stroke-width="0.281007"></path>
            <path d="M121.43 163.479C121.688 163.651 122.219 164.121 122.49 164.959C122.761 165.796 122.68 166.377 122.551 166.864" stroke="#C13C1B" stroke-width="0.281007" stroke-linecap="round" stroke-linejoin="round"></path>
            <path d="M124.098 163.376C124.362 163.618 124.641 164.161 124.722 164.431C124.809 164.722 124.832 165.348 124.788 165.638" stroke="#C13C1B" stroke-width="0.281007" stroke-linecap="round" stroke-linejoin="round"></path>
            <path fill-rule="evenodd" clip-rule="evenodd" d="M119.411 158.251C121.184 157.491 124.607 157.364 126.9 157.485C125.637 158.967 123.438 161.083 121.752 161.765C118.511 163.077 116.397 159.543 119.411 158.251Z" stroke="#C13C1B" stroke-width="0.281007"></path>
            <path fill-rule="evenodd" clip-rule="evenodd" d="M119.691 158.629C121.005 158.067 123.54 157.97 125.237 158.057C124.3 159.152 122.669 160.715 121.419 161.22C119.018 162.191 117.458 159.585 119.691 158.629Z" stroke="#C13C1B" stroke-width="0.281007"></path>
            <path d="M120.01 157.979C120.248 158.161 120.737 158.65 120.981 159.495C121.226 160.34 121.146 160.915 121.022 161.395" stroke="#C13C1B" stroke-width="0.281007" stroke-linecap="round" stroke-linejoin="round"></path>
            <path d="M122.678 157.987C122.92 158.24 123.172 158.793 123.244 159.065C123.322 159.359 123.337 159.983 123.294 160.27" stroke="#C13C1B" stroke-width="0.281007" stroke-linecap="round" stroke-linejoin="round"></path>
            <path fill-rule="evenodd" clip-rule="evenodd" d="M122.698 168.779C124.513 167.876 128.016 167.667 130.362 167.762C129.069 169.484 126.819 171.949 125.093 172.761C121.776 174.324 119.613 170.315 122.698 168.779Z" stroke="#C13C1B" stroke-width="0.281007"></path>
            <path fill-rule="evenodd" clip-rule="evenodd" d="M123.02 169.251C124.365 168.583 126.958 168.425 128.695 168.493C127.735 169.765 126.066 171.586 124.788 172.188C122.33 173.345 120.735 170.388 123.02 169.251Z" stroke="#C13C1B" stroke-width="0.281007"></path>
            <path d="M123.217 168.926C123.514 169.076 124.127 169.499 124.459 170.315C124.791 171.131 124.718 171.721 124.588 172.221" stroke="#C13C1B" stroke-width="0.281007" stroke-linecap="round" stroke-linejoin="round"></path>
            <path d="M125.868 168.579C126.175 168.796 126.51 169.314 126.61 169.576C126.72 169.86 126.769 170.485 126.73 170.78" stroke="#C13C1B" stroke-width="0.281007" stroke-linecap="round" stroke-linejoin="round"></path>
            <path fill-rule="evenodd" clip-rule="evenodd" d="M139.72 190.781C140.807 188.992 143.707 187.024 145.773 185.934C145.561 188.252 144.914 191.773 143.856 193.43C141.823 196.616 137.872 193.824 139.72 190.781Z" stroke="#C13C1B" stroke-width="0.281007"></path>
            <path fill-rule="evenodd" clip-rule="evenodd" d="M140.297 191.096C141.102 189.771 143.246 188.311 144.773 187.501C144.614 189.217 144.132 191.823 143.348 193.05C141.842 195.409 138.928 193.35 140.297 191.096Z" stroke="#C13C1B" stroke-width="0.281007"></path>
            <path d="M140.327 191.071C140.683 191.01 141.481 190.979 142.228 191.443C142.976 191.908 143.226 192.436 143.374 192.928" stroke="#C13C1B" stroke-width="0.281007" stroke-linecap="round" stroke-linejoin="round"></path>
            <path d="M142.223 189.194C142.624 189.179 143.215 189.393 143.451 189.544C143.707 189.707 144.094 190.186 144.221 190.451" stroke="#C13C1B" stroke-width="0.281007" stroke-linecap="round" stroke-linejoin="round"></path>
            <path fill-rule="evenodd" clip-rule="evenodd" d="M135.123 187.245C136.468 185.638 139.653 184.12 141.878 183.347C141.334 185.607 140.183 188.99 138.886 190.471C136.394 193.319 132.837 189.979 135.123 187.245Z" stroke="#C13C1B" stroke-width="0.281007"></path>
            <path fill-rule="evenodd" clip-rule="evenodd" d="M135.65 187.636C136.647 186.446 139.003 185.319 140.648 184.744C140.243 186.416 139.387 188.919 138.427 190.016C136.581 192.125 133.957 189.661 135.65 187.636Z" stroke="#C13C1B" stroke-width="0.281007"></path>
            <path d="M135.709 187.592C136.068 187.584 136.857 187.67 137.522 188.247C138.188 188.824 138.355 189.392 138.427 189.907" stroke="#C13C1B" stroke-width="0.281007" stroke-linecap="round" stroke-linejoin="round"></path>
            <path d="M137.885 186.041C138.282 186.087 138.831 186.39 139.04 186.576C139.267 186.778 139.575 187.316 139.659 187.601" stroke="#C13C1B" stroke-width="0.281007" stroke-linecap="round" stroke-linejoin="round"></path>
            <path fill-rule="evenodd" clip-rule="evenodd" d="M144.814 193.494C145.75 191.629 148.423 189.446 150.346 188.201C150.289 190.526 149.889 194.082 148.973 195.813C147.213 199.141 143.225 196.665 144.814 193.494Z" stroke="#C13C1B" stroke-width="0.281007"></path>
            <path fill-rule="evenodd" clip-rule="evenodd" d="M145.404 193.771C146.097 192.39 148.072 190.771 149.494 189.847C149.449 191.568 149.15 194.199 148.472 195.482C147.168 197.947 144.227 196.12 145.404 193.771Z" stroke="#C13C1B" stroke-width="0.281007"></path>
            <path d="M145.381 193.784C145.736 193.7 146.538 193.611 147.324 194C148.11 194.39 148.4 194.876 148.583 195.335" stroke="#C13C1B" stroke-width="0.281007" stroke-linecap="round" stroke-linejoin="round"></path>
            <path d="M147.063 191.731C147.466 191.686 148.078 191.845 148.327 191.971C148.597 192.108 149.023 192.536 149.17 192.78" stroke="#C13C1B" stroke-width="0.281007" stroke-linecap="round" stroke-linejoin="round"></path>
            <path fill-rule="evenodd" clip-rule="evenodd" d="M155.958 196.917C156.651 195.005 158.753 192.574 160.278 191.14C160.321 193.388 160.132 196.866 159.45 198.646C158.14 202.07 154.781 200.169 155.958 196.917Z" stroke="#C13C1B" stroke-width="0.281007"></path>
            <path fill-rule="evenodd" clip-rule="evenodd" d="M156.512 197.143C157.025 195.726 158.577 193.923 159.704 192.859C159.734 194.524 159.592 197.099 159.087 198.418C158.118 200.955 155.641 199.553 156.512 197.143Z" stroke="#C13C1B" stroke-width="0.281007"></path>
            <path d="M156.268 197.227C156.63 197.147 157.45 197.039 158.265 197.281C159.081 197.523 159.389 197.863 159.589 198.188" stroke="#C13C1B" stroke-width="0.281007" stroke-linecap="round" stroke-linejoin="round"></path>
            <path d="M157.428 194.935C157.842 194.877 158.478 194.954 158.739 195.03C159.022 195.112 159.475 195.395 159.634 195.562" stroke="#C13C1B" stroke-width="0.281007" stroke-linecap="round" stroke-linejoin="round"></path>
            <path fill-rule="evenodd" clip-rule="evenodd" d="M150.338 195.512C151.126 193.605 153.481 191.255 155.188 189.887C155.213 192.183 154.967 195.717 154.193 197.491C152.705 200.902 148.999 198.756 150.338 195.512Z" stroke="#C13C1B" stroke-width="0.281007"></path>
            <path fill-rule="evenodd" clip-rule="evenodd" d="M150.915 195.759C151.498 194.346 153.238 192.604 154.499 191.588C154.516 193.287 154.331 195.904 153.758 197.218C152.657 199.745 149.924 198.162 150.915 195.759Z" stroke="#C13C1B" stroke-width="0.281007"></path>
            <path d="M150.775 195.825C151.133 195.735 151.945 195.62 152.756 195.921C153.567 196.223 153.876 196.633 154.077 197.023" stroke="#C13C1B" stroke-width="0.281007" stroke-linecap="round" stroke-linejoin="round"></path>
            <path d="M152.162 193.612C152.572 193.551 153.201 193.656 153.46 193.753C153.74 193.857 154.19 194.207 154.348 194.411" stroke="#C13C1B" stroke-width="0.281007" stroke-linecap="round" stroke-linejoin="round"></path>
            <path fill-rule="evenodd" clip-rule="evenodd" d="M161.537 197.89C162.064 195.96 163.858 193.366 165.179 191.803C165.352 193.975 165.382 197.361 164.859 199.163C163.852 202.627 160.644 201.172 161.537 197.89Z" stroke="#C13C1B" stroke-width="0.281007"></path>
            <path fill-rule="evenodd" clip-rule="evenodd" d="M162.08 198.059C162.469 196.629 163.793 194.706 164.769 193.546C164.894 195.154 164.915 197.662 164.527 198.997C163.783 201.564 161.419 200.491 162.08 198.059Z" stroke="#C13C1B" stroke-width="0.281007"></path>
            <path d="M161.778 198.1C162.122 198.02 162.913 197.898 163.739 198.066C164.565 198.234 164.907 198.503 165.141 198.763" stroke="#C13C1B" stroke-width="0.281007" stroke-linecap="round" stroke-linejoin="round"></path>
            <path d="M162.675 195.729C163.076 195.668 163.71 195.707 163.974 195.759C164.261 195.814 164.737 196.025 164.912 196.153" stroke="#C13C1B" stroke-width="0.281007" stroke-linecap="round" stroke-linejoin="round"></path>
            <path fill-rule="evenodd" clip-rule="evenodd" d="M207.392 191.344C206.151 189.656 205.426 186.198 205.198 183.851C207.257 184.912 210.262 186.828 211.393 188.439C213.566 191.535 209.504 194.212 207.392 191.344Z" stroke="#C13C1B" stroke-width="0.281007"></path>
            <path fill-rule="evenodd" clip-rule="evenodd" d="M207.891 190.924C206.972 189.674 206.432 187.115 206.26 185.379C207.783 186.166 210.005 187.588 210.842 188.781C212.452 191.074 209.455 193.048 207.891 190.924Z" stroke="#C13C1B" stroke-width="0.281007"></path>
            <path d="M207.844 190.849C207.921 190.5 208.193 189.758 208.913 189.251C209.633 188.745 210.226 188.717 210.746 188.769" stroke="#C13C1B" stroke-width="0.281007" stroke-linecap="round" stroke-linejoin="round"></path>
            <path d="M206.866 188.361C207.005 187.988 207.43 187.53 207.662 187.372C207.913 187.2 208.511 187.03 208.808 187.016" stroke="#C13C1B" stroke-width="0.281007" stroke-linecap="round" stroke-linejoin="round"></path>
            <path fill-rule="evenodd" clip-rule="evenodd" d="M202.209 194.071C201.098 192.299 200.614 188.796 200.544 186.437C202.501 187.641 205.333 189.767 206.339 191.455C208.274 194.699 204.098 197.083 202.209 194.071Z" stroke="#C13C1B" stroke-width="0.281007"></path>
            <path fill-rule="evenodd" clip-rule="evenodd" d="M202.723 193.692C201.9 192.379 201.538 189.787 201.483 188.041C202.93 188.935 205.024 190.512 205.769 191.762C207.202 194.164 204.122 195.923 202.723 193.692Z" stroke="#C13C1B" stroke-width="0.281007"></path>
            <path d="M202.638 193.6C202.74 193.263 203.065 192.555 203.823 192.109C204.582 191.663 205.178 191.678 205.695 191.766" stroke="#C13C1B" stroke-width="0.281007" stroke-linecap="round" stroke-linejoin="round"></path>
            <path d="M201.872 191.037C202.038 190.681 202.499 190.262 202.743 190.124C203.007 189.974 203.618 189.85 203.917 189.858" stroke="#C13C1B" stroke-width="0.281007" stroke-linecap="round" stroke-linejoin="round"></path>
            <path fill-rule="evenodd" clip-rule="evenodd" d="M211.61 187.658C210.348 185.87 209.778 182.507 209.684 180.267C211.894 181.603 215.095 183.898 216.239 185.595C218.439 188.859 213.757 190.698 211.61 187.658Z" stroke="#C13C1B" stroke-width="0.281007"></path>
            <path fill-rule="evenodd" clip-rule="evenodd" d="M212.251 187.268C211.316 185.944 210.89 183.456 210.816 181.799C212.451 182.79 214.819 184.49 215.667 185.747C217.297 188.163 213.841 189.518 212.251 187.268Z" stroke="#C13C1B" stroke-width="0.281007"></path>
            <path d="M212.644 187.482C212.729 187.054 213.004 186.158 213.676 185.613C214.347 185.067 214.884 185.107 215.351 185.236" stroke="#C13C1B" stroke-width="0.281007" stroke-linecap="round" stroke-linejoin="round"></path>
            <path d="M211.373 185.163C211.511 184.706 211.911 184.175 212.125 184.003C212.356 183.815 212.898 183.671 213.164 183.689" stroke="#C13C1B" stroke-width="0.281007" stroke-linecap="round" stroke-linejoin="round"></path>
            <path fill-rule="evenodd" clip-rule="evenodd" d="M220.931 179.65C219.132 178.589 217.141 175.726 216.035 173.682C218.356 173.865 221.885 174.467 223.551 175.5C226.754 177.486 223.99 181.453 220.931 179.65Z" stroke="#C13C1B" stroke-width="0.281007"></path>
            <path fill-rule="evenodd" clip-rule="evenodd" d="M221.245 179.07C219.912 178.284 218.435 176.167 217.614 174.656C219.332 174.795 221.943 175.243 223.177 176.009C225.55 177.48 223.51 180.405 221.245 179.07Z" stroke="#C13C1B" stroke-width="0.281007"></path>
            <path d="M221.244 179.048C221.177 178.694 221.132 177.898 221.583 177.141C222.034 176.385 222.557 176.123 223.045 175.964" stroke="#C13C1B" stroke-width="0.281007" stroke-linecap="round" stroke-linejoin="round"></path>
            <path d="M219.333 177.187C219.312 176.787 219.515 176.192 219.661 175.953C219.82 175.694 220.291 175.297 220.553 175.165" stroke="#C13C1B" stroke-width="0.281007" stroke-linecap="round" stroke-linejoin="round"></path>
            <path fill-rule="evenodd" clip-rule="evenodd" d="M216.972 184.167C215.32 182.878 213.696 179.747 212.848 177.551C215.125 178.019 218.547 179.055 220.071 180.3C223.002 182.694 219.782 186.358 216.972 184.167Z" stroke="#C13C1B" stroke-width="0.281007"></path>
            <path fill-rule="evenodd" clip-rule="evenodd" d="M217.346 183.627C216.122 182.672 214.916 180.356 214.286 178.733C215.971 179.081 218.503 179.852 219.631 180.774C221.802 182.547 219.427 185.25 217.346 183.627Z" stroke="#C13C1B" stroke-width="0.281007"></path>
            <path d="M217.302 183.571C217.282 183.213 217.341 182.421 217.895 181.736C218.448 181.05 219.01 180.864 219.522 180.774" stroke="#C13C1B" stroke-width="0.281007" stroke-linecap="round" stroke-linejoin="round"></path>
            <path d="M215.677 181.45C215.708 181.053 215.992 180.493 216.171 180.278C216.365 180.044 216.892 179.717 217.173 179.623" stroke="#C13C1B" stroke-width="0.281007" stroke-linecap="round" stroke-linejoin="round"></path>
            <path fill-rule="evenodd" clip-rule="evenodd" d="M224.076 174.774C222.251 173.775 220.186 171.002 219.028 169.014C221.354 169.131 224.897 169.629 226.589 170.604C229.843 172.479 227.181 176.471 224.076 174.774Z" stroke="#C13C1B" stroke-width="0.281007"></path>
            <path fill-rule="evenodd" clip-rule="evenodd" d="M224.38 174.188C223.027 173.448 221.496 171.398 220.636 169.928C222.357 170.018 224.98 170.39 226.233 171.112C228.643 172.5 226.679 175.445 224.38 174.188Z" stroke="#C13C1B" stroke-width="0.281007"></path>
            <path d="M224.41 174.185C224.333 173.833 224.262 173.038 224.682 172.264C225.102 171.49 225.61 171.208 226.086 171.031" stroke="#C13C1B" stroke-width="0.281007" stroke-linecap="round" stroke-linejoin="round"></path>
            <path d="M222.426 172.41C222.391 172.01 222.571 171.407 222.708 171.162C222.855 170.897 223.307 170.481 223.561 170.338" stroke="#C13C1B" stroke-width="0.281007" stroke-linecap="round" stroke-linejoin="round"></path>
            <path fill-rule="evenodd" clip-rule="evenodd" d="M228.384 164.277C226.543 163.482 224.399 161.113 223.179 159.398C225.481 159.376 228.999 159.628 230.707 160.408C233.992 161.908 231.515 165.626 228.384 164.277Z" stroke="#C13C1B" stroke-width="0.281007"></path>
            <path fill-rule="evenodd" clip-rule="evenodd" d="M228.695 163.699C227.331 163.111 225.741 161.36 224.835 160.093C226.539 160.079 229.143 160.269 230.409 160.846C232.842 161.957 231.014 164.698 228.695 163.699Z" stroke="#C13C1B" stroke-width="0.281007"></path>
            <path d="M228.954 163.835C228.857 163.496 228.728 162.717 229.029 161.889C229.329 161.061 229.748 160.71 230.148 160.467" stroke="#C13C1B" stroke-width="0.281007" stroke-linecap="round" stroke-linejoin="round"></path>
            <path d="M226.738 162.436C226.67 162.045 226.772 161.42 226.868 161.157C226.973 160.871 227.329 160.392 227.538 160.213" stroke="#C13C1B" stroke-width="0.281007" stroke-linecap="round" stroke-linejoin="round"></path>
            <path fill-rule="evenodd" clip-rule="evenodd" d="M226.642 169.588C224.79 168.71 222.641 166.149 221.42 164.301C223.741 164.318 227.287 164.647 229.005 165.507C232.309 167.161 229.791 171.079 226.642 169.588Z" stroke="#C13C1B" stroke-width="0.281007"></path>
            <path fill-rule="evenodd" clip-rule="evenodd" d="M226.94 168.999C225.568 168.349 223.974 166.457 223.068 165.091C224.786 165.106 227.411 165.353 228.683 165.99C231.131 167.215 229.273 170.104 226.94 168.999Z" stroke="#C13C1B" stroke-width="0.281007"></path>
            <path d="M227.079 169.061C226.985 168.715 226.872 167.926 227.225 167.119C227.578 166.312 228.043 165.991 228.484 165.776" stroke="#C13C1B" stroke-width="0.281007" stroke-linecap="round" stroke-linejoin="round"></path>
            <path d="M224.954 167.485C224.896 167.089 225.029 166.471 225.144 166.215C225.267 165.938 225.671 165.485 225.903 165.322" stroke="#C13C1B" stroke-width="0.281007" stroke-linecap="round" stroke-linejoin="round"></path>
            <path fill-rule="evenodd" clip-rule="evenodd" d="M229.843 158.705C228.04 158.017 225.937 155.928 224.74 154.411C226.992 154.365 230.436 154.55 232.109 155.227C235.326 156.527 232.909 159.873 229.843 158.705Z" stroke="#C13C1B" stroke-width="0.281007"></path>
            <path fill-rule="evenodd" clip-rule="evenodd" d="M230.171 158.151C228.835 157.642 227.275 156.099 226.387 154.979C228.054 154.947 230.604 155.087 231.844 155.587C234.228 156.55 232.443 159.016 230.171 158.151Z" stroke="#C13C1B" stroke-width="0.281007"></path>
            <path d="M230.573 158.399C230.484 158.074 230.359 157.315 230.593 156.467C230.827 155.619 231.17 155.233 231.5 154.954" stroke="#C13C1B" stroke-width="0.281007" stroke-linecap="round" stroke-linejoin="round"></path>
            <path d="M228.268 157.254C228.201 156.873 228.269 156.244 228.343 155.974C228.422 155.681 228.706 155.17 228.875 154.973" stroke="#C13C1B" stroke-width="0.281007" stroke-linecap="round" stroke-linejoin="round"></path>
            <path fill-rule="evenodd" clip-rule="evenodd" d="M156.293 137.706C152.587 126.837 154.43 130.242 105.588 122.499L103.912 121.366L103.222 120.281L102.877 118.26L102.631 116.338L101.645 115.106L99.9196 114.317L98.1452 112.888L97.7509 112.247L93.9064 102.981L93.3837 102.748L92.8261 102.679L92.1988 101.947L92.0245 101.284L92.1639 100.797L92.5473 100.622L93.6626 100.413L97.2524 99.8904L102.62 99.0539L107.36 97.9037L111.472 96.9279L117.049 95.8823L121.022 95.1852L125.762 94.4882L130.502 93.7215L133.708 93.1638H137.263C146.324 87.713 153.148 87.1602 161.381 85.2871C164.179 70.2279 166.495 55.0725 170.513 40.2573C173.241 27.6698 176.028 15.2574 179.017 3.45286C180.57 0.0172262 182.22 -0.584053 184.036 3.59223C188.338 22.7847 189.987 35.4898 190.447 48.5523C190.608 53.1041 191.016 62.771 189.772 67.6445C192.156 62.4863 192.294 51.8752 192.859 46.74C195.04 26.9199 198.012 16.0336 200.556 2.40724C201.264 -0.489051 202.243 -1.07557 203.693 2.33757C209.89 23.8079 215.901 45.309 219.002 67.2953C219.079 78.0201 216.929 86.8093 210.968 92.285C208.687 93.0038 206.966 95.2931 203.476 92.63L203.131 92.1864L202.737 92.5314L202.441 93.6651L202.392 94.3058L203.871 95.5381C215.428 108.735 218.892 121.217 221.664 133.639L221.849 134.028L222.102 143.077C215.574 143.393 165.831 153.412 158.879 149.912L156.293 137.706Z" fill="black" stroke="white" stroke-width="0.423585"></path>
            <path fill-rule="evenodd" clip-rule="evenodd" d="M202.491 8.19757L201.406 11.9436L200.618 18.6469L199.73 27.519L199.139 33.8279L199.04 40.0384L198.843 45.1645L198.745 50.4877L198.449 56.1067L198.745 61.2328L199.435 66.8517L200.913 70.992L202.491 75.5266L203.969 79.2727L205.941 82.92L208.307 84.3987L211.264 84.2015L212.743 82.6243L214.32 79.2727L215.207 76.0195L215.503 70.7949L215.207 66.3588L214.714 62.1199L214.024 57.5854L212.94 52.755L211.658 46.7417L210.278 38.7569L209.095 33.8279L207.715 28.209L205.941 22.2943L204.265 15.6895L202.491 8.19757Z" fill="#F2F2F2" stroke="white" stroke-width="0.195175"></path>
            <path d="M204.019 15.8374C203.234 22.0075 202.276 28.1576 201.576 34.3368C200.576 43.7562 200.521 53.2384 200.323 62.6981C200.247 64.3952 200.191 66.0932 200.075 67.7882" stroke="black" stroke-width="0.195175"></path>
            <path d="M206.434 24.463C205.774 27.8819 205.168 31.3129 205.027 34.7989C204.764 39.1144 204.207 43.4058 204.089 47.7312C203.689 54.861 202.415 61.9153 202.199 69.06C202.164 70.386 201.939 71.6954 201.8 73.0128" stroke="black" stroke-width="0.195175"></path>
            <path d="M208.849 33.4337C208.106 36.505 207.625 39.6217 207.212 42.7515C206.629 46.2022 206.069 49.6535 205.717 53.1366C205.047 58.9572 204.165 64.7579 203.706 70.6C203.535 72.7647 203.479 74.9353 203.378 77.1039" stroke="black" stroke-width="0.195175"></path>
            <path d="M210.673 42.9465C209.81 46.4949 209.068 50.0671 208.559 53.6845C207.607 59.5855 207.374 65.6013 205.927 71.418C205.28 74.2568 204.875 77.119 204.561 80.012" stroke="black" stroke-width="0.195175"></path>
            <path d="M211.954 49.4033C210.759 53.8834 210.286 58.5138 209.533 63.081C208.967 66.9863 208.248 70.8742 207.204 74.6797C206.906 77.1138 206.565 79.5479 205.793 81.8849" stroke="black" stroke-width="0.195175"></path>
            <path d="M213.531 56.1067C212.295 59.7524 212.192 63.6482 211.157 67.3466C210.507 70.9918 209.515 74.5592 208.405 78.0897C207.985 79.8916 207.562 81.6923 207.222 83.5115" stroke="black" stroke-width="0.195175"></path>
            <path d="M214.418 62.7607C213.486 64.8045 213.606 67.1003 213.125 69.2631C212.673 71.511 211.986 73.7134 211.427 75.9397C210.69 78.6374 209.87 81.3156 209.292 84.0537" stroke="black" stroke-width="0.195175"></path>
            <path d="M215.109 71.0906C214.667 74.263 214.405 77.5309 213.031 80.4685C212.655 81.3842 212.28 82.3 211.905 83.2158" stroke="black" stroke-width="0.195175"></path>
            <path d="M102.62 115.748L105.478 116.097L107.917 116.167H112.448L120.813 116.097H129.177L130.99 116.167" stroke="#818181" stroke-width="0.195175"></path>
            <path fill-rule="evenodd" clip-rule="evenodd" d="M143.862 92.3314C146.28 90.3582 151.979 87.821 154.631 88.1839C156.219 88.4012 160.786 90.3572 165.466 91.3396C168.725 92.0238 171.402 92.4456 174.149 92.5057C174.431 93.0052 174.292 93.5048 174.218 94.0043C171.308 94.0322 168.729 93.972 164.285 93.0981C161.056 92.3403 157.85 90.5735 153.655 90.2402C151.997 89.8754 148.994 90.768 144.454 93.0981C143.944 93.0513 143.546 92.9289 143.862 92.3314Z" fill="white" stroke="white" stroke-width="0.195175" stroke-linecap="round" stroke-linejoin="round"></path>
            <path fill-rule="evenodd" clip-rule="evenodd" d="M144.419 100.94C147.672 94.6617 150.072 93.7195 152.401 94.2831C152.401 94.2831 163.623 96.5834 164.808 96.7228C166.131 96.8784 172.824 96.9319 172.824 96.9319C172.995 97.6523 173.131 98.3726 172.755 99.0928C169.874 99.3847 165.652 99.3785 161.114 99.3019C160.035 100.096 158.751 100.736 156.932 100.975C153.679 101.091 150.054 101.068 146.057 100.905C145.971 100.945 145.583 101.008 145.221 101.323C144.518 101.483 144.174 101.4 144.419 100.94Z" fill="white" stroke="black" stroke-width="0.195175" stroke-linecap="round" stroke-linejoin="round"></path>
            <path fill-rule="evenodd" clip-rule="evenodd" d="M152.492 100.591C150.266 100.276 148.618 99.7473 148.536 97.4956C148.453 95.209 149.038 94.1132 151.221 94.0043L157.21 95.2281C157.206 97.4585 156.784 98.3639 156.303 99.0793C155.631 99.8413 155.298 100.749 152.492 100.591Z" fill="black" stroke="black" stroke-width="0.195175" stroke-linecap="round" stroke-linejoin="round"></path>
            <path fill-rule="evenodd" clip-rule="evenodd" d="M160.953 151.524L158.33 162.644C163.839 169.749 185.406 166.109 188.821 164.374L182.556 149.072L183.736 148.54C182.268 147.902 178.654 148.156 177.073 149.386C174.08 148.82 171.897 148.65 169.055 150.121C166.64 148.964 161.823 150.165 160.953 151.524Z" fill="#A13C2A" stroke="black" stroke-width="0.223585"></path>
            <path fill-rule="evenodd" clip-rule="evenodd" d="M261.927 119.324C249.635 105.318 237.991 94.0921 214.632 87.6682C213.223 90.0916 208.455 96.5495 202.956 91.9948L202.107 93.7792C209.359 107.704 201.62 119.13 177.247 124.105C182.406 137.56 181.107 146.376 181.719 158.281C182.932 181.917 183.209 218.611 183.209 218.611H209.634C209.935 198.737 209.072 165.309 210.463 152.085C210.738 149.472 210.312 149.814 210.793 149.088L235.602 154.365C284.69 167.322 279.614 200.503 278.623 211.356L279.826 227.533L286.495 227.373L285.377 179.302C281.041 159.194 276.593 136.033 261.927 119.324Z" fill="#002255" stroke="black" stroke-width="0.223585" stroke-linecap="round" stroke-linejoin="round"></path>
            <path fill-rule="evenodd" clip-rule="evenodd" d="M150.82 129.768C137.582 162.657 140.385 182.658 140.522 218.611H166.496L166.231 166.339C161.858 153.579 159.761 133.063 150.82 129.768Z" fill="#002255" stroke="black" stroke-width="0.223585" stroke-linecap="round" stroke-linejoin="round"></path>
            <path fill-rule="evenodd" clip-rule="evenodd" d="M183.984 80.3065C175.344 79.6719 168.511 80.6935 162.793 85.0156C168.606 83.9106 176.137 83.4012 183.493 84.601L183.984 80.3065Z" fill="#002255" stroke="#002255" stroke-width="0.223585"></path>
            <path fill-rule="evenodd" clip-rule="evenodd" d="M183.209 206.415H209.634V218.611H183.209V206.415Z" fill="#FAC53A" stroke="black" stroke-width="0.223585"></path>
            <path fill-rule="evenodd" clip-rule="evenodd" d="M140.522 206.415H166.496V218.611H140.522V206.415Z" fill="#FAC53A" stroke="black" stroke-width="0.223585"></path>
            <path d="M141.888 207.608L164.769 207.711" stroke="#C13C1B" stroke-width="0.664577" stroke-linecap="round" stroke-linejoin="round"></path>
            <path d="M141.878 209.427L164.759 209.53" stroke="#C13C1B" stroke-width="0.664577" stroke-linecap="round" stroke-linejoin="round"></path>
            <path d="M141.873 211.401L164.754 211.505" stroke="#C13C1B" stroke-width="0.664577" stroke-linecap="round" stroke-linejoin="round"></path>
            <path d="M141.942 213.46L164.823 213.563" stroke="#C13C1B" stroke-width="0.664577" stroke-linecap="round" stroke-linejoin="round"></path>
            <path d="M142.093 215.592L164.969 215.537" stroke="#C13C1B" stroke-width="0.664577" stroke-linecap="round" stroke-linejoin="round"></path>
            <path d="M142.009 217.492L164.959 217.277" stroke="#C13C1B" stroke-width="0.664577" stroke-linecap="round" stroke-linejoin="round"></path>
            <path fill-rule="evenodd" clip-rule="evenodd" d="M11.0545 174.878C11.796 167.51 10.6366 161.042 13.6622 152.083C17.3543 141.151 21.0427 139.256 25.3426 133.511C26.9714 132.18 29.6526 133.571 28.7731 136.101C23.7864 140.747 20.2266 147.089 18.7726 150.709C20.269 150.54 27.4732 149.987 27.6346 157.452L27.6098 667.2C35.6308 676.404 28.7365 683.479 29.1675 691.476C28.3476 691.871 27.6969 691.619 27.6137 690.922C26.5399 682.171 29.5247 678.354 27.5601 673.804C26.6208 671.628 24.8633 671.73 23.8391 673.582C21.6327 677.572 24.7236 680.026 23.9173 690.836C23.8585 691.623 22.8947 691.85 22.5017 691.378C21.9992 683.344 16.4458 676.572 23.797 667.191L23.7884 158.061C23.3737 153.897 18.8683 153.45 16.6306 158.156C14.0074 163.673 15.1194 169.392 14.4162 175.008C13.2512 178.625 10.857 177.231 11.0545 174.878Z" fill="#002255" stroke="black" stroke-width="0.221526" stroke-linecap="round" stroke-linejoin="round"></path>
            <path d="M184.849 207.608L207.73 207.711" stroke="#C13C1B" stroke-width="0.664577" stroke-linecap="round" stroke-linejoin="round"></path>
            <path d="M184.839 209.746L207.719 209.85" stroke="#C13C1B" stroke-width="0.664577" stroke-linecap="round" stroke-linejoin="round"></path>
            <path d="M184.913 211.721L207.794 211.824" stroke="#C13C1B" stroke-width="0.664577" stroke-linecap="round" stroke-linejoin="round"></path>
            <path d="M184.903 213.619L207.784 213.723" stroke="#C13C1B" stroke-width="0.664577" stroke-linecap="round" stroke-linejoin="round"></path>
            <path d="M185.053 215.592L207.929 215.537" stroke="#C13C1B" stroke-width="0.664577" stroke-linecap="round" stroke-linejoin="round"></path>
            <path d="M184.969 217.572L207.919 217.356" stroke="#C13C1B" stroke-width="0.664577" stroke-linecap="round" stroke-linejoin="round"></path>
            <path fill-rule="evenodd" clip-rule="evenodd" d="M278.77 215.318L286.137 215.308L286.496 227.395L279.674 227.514L278.77 215.318Z" fill="#FAC53A" stroke="black" stroke-width="0.223585"></path>
            <path d="M279.176 216.511L284.61 216.615" stroke="#C13C1B" stroke-width="0.664577" stroke-linecap="round" stroke-linejoin="round"></path>
            <path d="M279.336 218.33L284.6 218.434" stroke="#C13C1B" stroke-width="0.664577" stroke-linecap="round" stroke-linejoin="round"></path>
            <path d="M279.387 220.305L284.594 220.408" stroke="#C13C1B" stroke-width="0.664577" stroke-linecap="round" stroke-linejoin="round"></path>
            <path d="M279.569 222.363L284.664 222.467" stroke="#C13C1B" stroke-width="0.664577" stroke-linecap="round" stroke-linejoin="round"></path>
            <path d="M279.72 224.382L284.809 224.441" stroke="#C13C1B" stroke-width="0.664577" stroke-linecap="round" stroke-linejoin="round"></path>
            <path d="M279.805 226.169L284.771 226.152" stroke="#C13C1B" stroke-width="0.664577" stroke-linecap="round" stroke-linejoin="round"></path>
            <path d="M278.745 215.28L279.705 227.476" stroke="black" stroke-width="0.223585"></path>
            <path fill-rule="evenodd" clip-rule="evenodd" d="M78.8086 215.413L112.464 214.585L112.297 230.921L77.8447 230.821L78.8086 215.413Z" fill="#FAC53A" stroke="black" stroke-width="0.251116" stroke-linecap="round" stroke-linejoin="round"></path>
            <path fill-rule="evenodd" clip-rule="evenodd" d="M78.6946 217.041L113.348 216.724L113.252 220.801L78.3744 221.243L78.6946 217.041Z" fill="#0044AA" stroke="black" stroke-width="0.251116" stroke-linecap="round" stroke-linejoin="round"></path>
            <path fill-rule="evenodd" clip-rule="evenodd" d="M77.5587 224.348L112.474 224.149L112.392 228.633L77.2195 228.916L77.5587 224.348Z" fill="#0044AA" stroke="black" stroke-width="0.251116" stroke-linecap="round" stroke-linejoin="round"></path>
            <path fill-rule="evenodd" clip-rule="evenodd" d="M247.328 219.397L274.82 213.267L280.035 226.817L251.6 232.306L247.328 219.397Z" fill="#FAC53A" stroke="black" stroke-width="0.240341" stroke-linecap="round" stroke-linejoin="round"></path>
            <path fill-rule="evenodd" clip-rule="evenodd" d="M247.461 219.536L277.634 215.22L279.255 218.222L248.915 222.659L247.461 219.536Z" fill="#0044AA" stroke="black" stroke-width="0.240341" stroke-linecap="round" stroke-linejoin="round"></path>
            <path fill-rule="evenodd" clip-rule="evenodd" d="M247.754 227.021L277.992 222.649L279.79 225.961L249.307 230.434L247.754 227.021Z" fill="#0044AA" stroke="black" stroke-width="0.240341" stroke-linecap="round" stroke-linejoin="round"></path>
            <path fill-rule="evenodd" clip-rule="evenodd" d="M220.467 322.078L215.809 291.388L136.844 325.012L136.176 332.761L220.467 322.078Z" fill="#FAC53A" stroke="black" stroke-width="0.223585" stroke-linecap="round" stroke-linejoin="round"></path>
            <path fill-rule="evenodd" clip-rule="evenodd" d="M215.074 291.309L215.618 295.088L140.053 324.42L136.724 325.194L215.074 291.309Z" fill="white" stroke="black" stroke-width="0.223585" stroke-linecap="round" stroke-linejoin="round"></path>
            <path d="M217.676 304.73L148.441 325.423" stroke="black" stroke-width="0.25851" stroke-linecap="round" stroke-linejoin="round"></path>
            <path d="M216.426 298.669L146.309 323.689" stroke="black" stroke-width="0.25851" stroke-linecap="round" stroke-linejoin="round"></path>
            <path d="M149.214 325.814L218.136 306.595" stroke="black" stroke-width="0.223585"></path>
            <path d="M142.828 323.773L215.926 296.164" stroke="black" stroke-width="0.223585"></path>
            <path d="M144.698 323.699L216.218 297.433" stroke="black" stroke-width="0.223585"></path>
        </g>
    </g>
    <defs>
        <clipPath id="clip0_1_383">
            <rect width="287.496" height="283" fill="white"></rect>
        </clipPath>
        <clipPath id="clip1_1_383">
            <rect width="285.496" height="719.665" fill="white" transform="translate(1)"></rect>
        </clipPath>
    </defs>
</svg>
