<svg version="1.1" id="Layer_1" x="0px" y="0px" width="1800px" height="1200px" viewBox="0 0 1800 1200" enable-background="new 0 0 1800 1200" xmlns="http://www.w3.org/2000/svg">
	<defs></defs>
	<g>
		<g>
			<g>
				<rect x="-246" y="984.479" width="2293" height="369.936" style="fill: rgb(39, 30, 62);"></rect>
				<rect x="-246" y="-46.5" width="2293" height="1030.979" style="fill: rgb(103, 23, 53);"></rect>
			</g>
			<g>
				<g>
					<g>
						<g>
							<g>
								<path fill="#377233" d="M766.757,209.359l0.2-1.201c0.112-0.672,0.197-1.229,0.258-1.64c-0.34-0.011-0.78-0.021-1.307-0.025
									l-0.695-0.004l-0.177-3.092l1.004,0.288c0.704,0.202,1.281,0.354,1.699,0.46c0.079-0.586,0.191-1.481,0.307-2.606
									l0.07-0.682l0.816,0.021c0.187,0.005,0.38,0.009,0.579,0.018c3.957,0.091,10.267,0.201,17.792,0.201
									c22.13,0,51.438-0.923,65.388-5.322l0.238-0.075l0.236,0.085c0.175,0.063,4.306,1.593,5.147,5.133
									c0.563,2.369-0.487,4.984-3.123,7.773l-0.241,0.255l-0.349-0.025c-0.309-0.022-31.139-2.188-56.482-2.188
									c-14.699,0-24.708,0.715-29.751,2.124c-0.171,0.042-0.314,0.085-0.452,0.13L766.757,209.359z M798.118,205.25
									c23.926,0,52.719,1.926,56.232,2.167c2.096-2.298,2.945-4.367,2.523-6.152c-0.556-2.356-3.206-3.66-3.992-3.999
									c-14.227,4.387-43.477,5.124-65.578,5.124c-7.54,0-13.862-0.39-17.838-0.39c-0.006,0-0.013,0-0.02,0
									c-0.19,2-0.353,2.959-0.355,2.97l-0.024,0.198l-0.203,0.696l-0.063,0.011l-0.023,0.165c-0.028,0.2-0.086,0.624-0.177,1.216
									C773.918,205.922,783.848,205.25,798.118,205.25z"></path>
							</g>
							<path fill="#6DAC6A" d="M768.782,201.614c0.224,0.006,0.457,0.011,0.701,0.021c14.148,0.328,63.873,1.013,83.431-5.154
								c0,0,9.538,3.446,1.738,11.7c0,0-69.086-4.902-86.484-0.039c-0.166,0.041-0.326,0.088-0.48,0.138
								c0.235-1.413,0.354-2.319,0.374-2.447c-0.001-0.011,0-0.018,0-0.018s-0.006-0.002-0.013-0.003
								c-0.106-0.003-0.876-0.05-2.136-0.059l-0.024-0.429l-0.022-0.415l-0.03-0.513c1.457,0.417,2.374,0.627,2.507,0.654
								c0.006,0.001,0.013,0.003,0.013,0.003s0.001-0.006,0.003-0.012C768.383,204.892,768.578,203.598,768.782,201.614z"></path>
						</g>
						<g>
							<path fill="#DE5677" d="M733.28,190.884c11.119,13.767,35.077,14.167,35.077,14.167s3.419-21.836-2.941-28.875
								c-6.361-7.04-23.773-10.933-38.687-25.24C719.689,157.299,722.161,177.116,733.28,190.884z"></path>
							<path fill="#DE5677" d="M730.437,209.768c14.482-10.169,37.623-3.953,37.623-3.953s-2.73,21.933-10.785,26.947
								c-8.054,5.014-25.864,3.958-44.143,13.603C708.118,238.31,715.955,219.938,730.437,209.768z"></path>
							<linearGradient id="SVGID_1_" gradientUnits="userSpaceOnUse" x1="-977.3926" y1="234.7202" x2="-909.0957" y2="234.7202" gradientTransform="matrix(-0.5284 -0.849 0.849 -0.5284 48.5356 -498.1123)">
								<stop offset="0" style="stop-color:#DF737D"></stop>
								<stop offset="1" style="stop-color:#CB5078"></stop>
							</linearGradient>
							<path fill="url(#SVGID_1_)" d="M733.298,190.869c0.536,0.606,1.043,1.24,1.626,1.802c0.553,0.591,1.166,1.121,1.764,1.665
								c0.629,0.509,1.241,1.04,1.906,1.501c0.644,0.491,1.328,0.923,2.007,1.362c0.697,0.411,1.384,0.837,2.104,1.206
								c0.708,0.392,1.44,0.734,2.168,1.086c0.739,0.325,1.473,0.664,2.229,0.953c0.746,0.31,1.51,0.575,2.27,0.851
								c0.767,0.255,1.532,0.513,2.308,0.738c0.773,0.235,1.554,0.443,2.334,0.651c0.782,0.205,1.568,0.388,2.356,0.567
								c0.789,0.169,1.58,0.333,2.375,0.478c1.59,0.288,3.188,0.53,4.791,0.728c1.603,0.188,3.218,0.338,4.823,0.391l-0.207,0.173
								c0.461-3.123,0.768-6.281,0.917-9.441c0.138-3.159,0.133-6.334-0.232-9.479c-0.184-1.57-0.45-3.134-0.873-4.657
								c-0.428-1.518-1.029-3-1.915-4.299c-0.208-0.332-0.486-0.622-0.722-0.921l-0.854-0.826l-0.427-0.414
								c-0.151-0.126-0.309-0.244-0.462-0.366l-0.928-0.728c-0.634-0.467-1.308-0.886-1.959-1.332l-2.041-1.208l-2.083-1.139
								l-2.11-1.093l-4.24-2.152c-1.414-0.716-2.822-1.45-4.222-2.195l-2.092-1.137l-2.065-1.186
								c-0.692-0.39-1.369-0.804-2.041-1.228c-0.672-0.424-1.356-0.829-2.019-1.268c-1.313-0.895-2.652-1.752-3.915-2.721
								c-0.635-0.479-1.29-0.93-1.909-1.429l-1.851-1.506c-0.628-0.489-1.21-1.03-1.798-1.568l-1.764-1.605l0.35,0.005
								c-0.64,0.599-1.193,1.288-1.663,2.036c-0.438,0.765-0.84,1.559-1.117,2.406c-0.167,0.411-0.262,0.85-0.396,1.274
								c-0.102,0.434-0.21,0.866-0.291,1.305c-0.157,0.879-0.281,1.766-0.336,2.66c-0.037,0.446-0.058,0.893-0.065,1.34
								c-0.02,0.448-0.017,0.897-0.007,1.345c-0.002,0.45,0.024,0.897,0.049,1.346c0.017,0.448,0.061,0.896,0.102,1.343
								c0.034,0.447,0.093,0.893,0.15,1.338c0.05,0.448,0.122,0.892,0.197,1.334c0.066,0.445,0.147,0.887,0.239,1.328
								c0.083,0.442,0.169,0.884,0.274,1.322c0.192,0.879,0.423,1.75,0.667,2.617l0.388,1.294l0.424,1.283
								c0.305,0.849,0.616,1.695,0.963,2.528c0.163,0.42,0.35,0.831,0.531,1.244c0.18,0.414,0.363,0.826,0.564,1.23
								c0.381,0.819,0.8,1.618,1.225,2.415c0.443,0.786,0.892,1.569,1.375,2.332c0.231,0.389,0.487,0.76,0.735,1.137
								c0.248,0.378,0.499,0.752,0.767,1.116C732.188,189.443,732.745,190.154,733.298,190.869z M733.261,190.9
								c-0.559-0.711-1.122-1.42-1.643-2.158c-0.271-0.363-0.525-0.737-0.776-1.113c-0.251-0.376-0.511-0.747-0.745-1.134
								c-0.49-0.761-0.945-1.542-1.395-2.327c-0.434-0.794-0.874-1.585-1.269-2.399c-0.208-0.401-0.401-0.812-0.588-1.224
								c-0.19-0.411-0.385-0.82-0.556-1.239c-0.364-0.83-0.69-1.674-1.013-2.52l-0.453-1.282l-0.417-1.294
								c-0.262-0.868-0.512-1.74-0.722-2.622c-0.116-0.439-0.211-0.882-0.305-1.327c-0.098-0.443-0.184-0.889-0.257-1.336
								c-0.081-0.447-0.157-0.895-0.214-1.346c-0.064-0.45-0.129-0.899-0.168-1.352c-0.047-0.453-0.097-0.904-0.119-1.359
								c-0.031-0.453-0.062-0.907-0.066-1.363c-0.015-0.454-0.024-0.91-0.009-1.366c0-0.455,0.022-0.911,0.059-1.365
								c0.054-0.91,0.178-1.816,0.338-2.717c0.083-0.449,0.192-0.895,0.295-1.339c0.138-0.438,0.235-0.887,0.406-1.315
								c0.285-0.874,0.7-1.703,1.158-2.502c0.489-0.787,1.072-1.515,1.752-2.154l0.17-0.158l0.18,0.164l1.755,1.591
								c0.583,0.533,1.166,1.066,1.786,1.556l1.83,1.505c0.611,0.5,1.26,0.952,1.889,1.43c1.25,0.968,2.577,1.828,3.879,2.724
								c0.657,0.439,1.335,0.847,2.002,1.271s1.339,0.841,2.025,1.234l2.048,1.199l2.074,1.156c1.389,0.759,2.785,1.507,4.19,2.238
								l4.217,2.198l2.101,1.118l2.08,1.159l2.041,1.23c0.653,0.454,1.325,0.879,1.963,1.356l0.937,0.747
								c0.155,0.125,0.313,0.247,0.465,0.376l0.424,0.417l0.849,0.833c0.137,0.16,0.253,0.314,0.382,0.471
								c0.128,0.155,0.252,0.312,0.354,0.483c0.896,1.329,1.477,2.833,1.914,4.359c0.434,1.531,0.71,3.101,0.904,4.677
								c0.373,3.156,0.44,6.339,0.343,9.512c-0.05,1.587-0.317,3.147-0.449,4.729c-0.133,1.583-0.47,3.136-0.696,4.713l-0.026,0.179
								l-0.007,0.02c-1.635-0.046-3.165-0.177-4.78-0.359c-1.615-0.185-3.179-0.427-4.774-0.737
								c-0.798-0.152-1.571-0.32-2.364-0.497c-0.791-0.187-1.57-0.376-2.354-0.589c-0.784-0.212-1.562-0.433-2.333-0.687
								c-0.776-0.24-1.539-0.513-2.305-0.784c-0.758-0.291-1.52-0.572-2.265-0.897c-0.753-0.306-1.484-0.658-2.222-0.999
								c-0.725-0.367-1.454-0.724-2.157-1.129c-0.718-0.382-1.399-0.824-2.091-1.249c-0.673-0.456-1.354-0.896-1.998-1.391
								c-0.664-0.468-1.274-1.003-1.901-1.518c-0.597-0.55-1.208-1.085-1.758-1.682C734.296,192.146,733.793,191.51,733.261,190.9z"></path>
							<linearGradient id="SVGID_2_" gradientUnits="userSpaceOnUse" x1="-995.2495" y1="204.8945" x2="-961.0158" y2="204.8945" gradientTransform="matrix(-0.5284 -0.849 0.849 -0.5284 48.5356 -498.1123)">
								<stop offset="0" style="stop-color:#DF737D"></stop>
								<stop offset="1" style="stop-color:#CB5078"></stop>
							</linearGradient>
							<path fill="url(#SVGID_2_)" d="M730.423,209.749c0.68-0.44,1.339-0.914,2.055-1.299c0.694-0.423,1.429-0.767,2.154-1.132
								c0.744-0.321,1.479-0.668,2.247-0.935c0.754-0.298,1.531-0.535,2.303-0.787c0.781-0.217,1.56-0.453,2.354-0.623
								c0.788-0.196,1.588-0.338,2.385-0.491c0.802-0.124,1.604-0.262,2.412-0.348c0.805-0.107,1.615-0.168,2.425-0.239
								c0.811-0.048,1.622-0.101,2.435-0.118c0.812-0.031,1.625-0.028,2.437-0.016c0.813,0.011,1.625,0.045,2.437,0.084
								c0.811,0.048,1.622,0.102,2.432,0.176c1.619,0.142,3.232,0.346,4.835,0.613c1.604,0.271,3.197,0.578,4.78,0.983l0.174,0.045
								l-0.024,0.178c-0.211,1.58-0.494,3.141-0.801,4.699c-0.311,1.557-0.656,3.107-1.046,4.647
								c-0.781,3.076-1.723,6.118-2.952,9.049c-0.62,1.461-1.318,2.895-2.157,4.246c-0.84,1.347-1.813,2.633-3.041,3.664
								c-0.146,0.137-0.309,0.254-0.475,0.367c-0.166,0.116-0.321,0.231-0.497,0.347l-1.045,0.567l-0.522,0.284
								c-0.181,0.083-0.368,0.155-0.551,0.233l-1.106,0.459c-0.745,0.284-1.508,0.506-2.261,0.764l-2.301,0.62l-2.319,0.541
								l-2.327,0.496l-4.659,0.952c-1.553,0.314-3.101,0.649-4.645,0.996l-2.312,0.54l-2.299,0.589
								c-0.769,0.188-1.53,0.402-2.287,0.627c-0.759,0.226-1.523,0.43-2.275,0.671c-1.499,0.501-3.012,0.962-4.48,1.549
								c-0.736,0.287-1.484,0.542-2.21,0.854l-2.174,0.941c-0.731,0.301-1.438,0.652-2.145,1.004l-2.125,1.046l-0.219,0.107
								l-0.119-0.2c-0.478-0.801-0.838-1.662-1.092-2.552c-0.219-0.896-0.39-1.807-0.423-2.726
								c-0.046-0.458-0.016-0.917-0.027-1.375c0.023-0.456,0.04-0.915,0.085-1.37c0.095-0.909,0.225-1.814,0.424-2.705
								c0.089-0.448,0.194-0.891,0.319-1.329c0.111-0.442,0.245-0.877,0.384-1.311c0.129-0.437,0.284-0.865,0.439-1.292
								c0.146-0.43,0.319-0.852,0.488-1.272c0.163-0.426,0.349-0.84,0.534-1.255c0.179-0.418,0.376-0.827,0.577-1.233
								c0.194-0.411,0.4-0.816,0.616-1.214c0.212-0.401,0.427-0.801,0.658-1.192c0.445-0.79,0.926-1.56,1.417-2.321l0.756-1.129
								l0.789-1.107c0.544-0.724,1.09-1.446,1.668-2.143c0.281-0.356,0.581-0.695,0.875-1.038c0.294-0.344,0.592-0.685,0.903-1.014
								c0.604-0.674,1.246-1.313,1.88-1.957c0.649-0.631,1.302-1.256,1.981-1.854c0.332-0.307,0.684-0.592,1.029-0.884
								c0.345-0.293,0.692-0.582,1.053-0.856C728.954,210.803,729.69,210.277,730.423,209.749z M730.451,209.789
								c-0.728,0.535-1.459,1.064-2.159,1.636c-0.357,0.275-0.702,0.567-1.044,0.862c-0.343,0.293-0.692,0.582-1.021,0.891
								c-0.674,0.599-1.322,1.229-1.964,1.863c-0.628,0.649-1.251,1.301-1.843,1.982c-0.303,0.334-0.594,0.679-0.881,1.027
								c-0.288,0.346-0.581,0.69-0.853,1.049c-0.563,0.705-1.095,1.433-1.622,2.164l-0.762,1.118l-0.73,1.137
								c-0.473,0.767-0.935,1.54-1.361,2.332c-0.222,0.392-0.426,0.792-0.628,1.195c-0.209,0.398-0.409,0.801-0.595,1.209
								c-0.195,0.407-0.385,0.814-0.557,1.229c-0.178,0.413-0.357,0.824-0.513,1.246c-0.163,0.419-0.328,0.837-0.468,1.264
								c-0.147,0.424-0.295,0.848-0.418,1.279c-0.131,0.429-0.259,0.859-0.363,1.295c-0.117,0.433-0.22,0.869-0.307,1.307
								c-0.194,0.875-0.32,1.762-0.41,2.65c-0.043,0.444-0.058,0.889-0.08,1.335c0.013,0.445-0.018,0.892,0.03,1.334
								c0.033,0.89,0.201,1.764,0.411,2.62c0.244,0.85,0.587,1.663,1.037,2.416l-0.338-0.092l2.139-1.057
								c0.712-0.354,1.422-0.715,2.161-1.011l2.193-0.937c0.732-0.311,1.487-0.565,2.229-0.849c1.48-0.583,3.004-1.039,4.513-1.536
								c0.758-0.24,1.527-0.44,2.29-0.662c0.763-0.223,1.528-0.435,2.3-0.62l2.312-0.57l2.325-0.516
								c1.552-0.332,3.106-0.649,4.663-0.947l4.669-0.901l2.329-0.469l2.316-0.52l2.295-0.6c0.749-0.248,1.512-0.466,2.25-0.739
								l1.093-0.445c0.182-0.075,0.366-0.145,0.545-0.225l0.524-0.28l1.049-0.559c0.309-0.223,0.658-0.424,0.948-0.687
								c1.21-1.004,2.196-2.263,3.025-3.604c0.826-1.348,1.512-2.778,2.122-4.237c1.218-2.922,2.097-5.973,2.835-9.048
								c0.727-3.079,1.303-6.199,1.721-9.328l0.15,0.223c-1.558-0.392-3.151-0.692-4.744-0.955
								c-1.596-0.251-3.198-0.458-4.806-0.619c-0.803-0.081-1.609-0.141-2.414-0.195c-0.807-0.046-1.614-0.085-2.421-0.104
								c-0.808-0.016-1.616-0.031-2.423-0.018c-0.809,0.003-1.615,0.039-2.423,0.073c-0.806,0.056-1.613,0.1-2.415,0.191
								c-0.806,0.071-1.604,0.193-2.406,0.302c-0.796,0.138-1.595,0.266-2.383,0.447c-0.794,0.155-1.572,0.376-2.355,0.579
								c-0.773,0.235-1.55,0.461-2.305,0.756c-0.766,0.262-1.501,0.603-2.246,0.918c-0.725,0.359-1.46,0.699-2.154,1.114
								C731.796,208.884,731.133,209.354,730.451,209.789z"></path>
							<path fill="#DEAEBA" d="M731.923,217.006c12.229-12.791,36.137-11.191,36.137-11.191s1.585,22.046-5.341,28.53
								c-6.927,6.483-24.603,8.911-40.658,21.923C715.577,249.34,719.694,229.797,731.923,217.006z"></path>
							<path fill="#DEAEBA" d="M736.691,184.354c8.239,15.661,31.666,20.697,31.666,20.697s7.586-20.759,2.711-28.898
								c-4.877-8.138-21.203-15.333-33.061-32.258C729.868,148.772,728.451,168.692,736.691,184.354z"></path>
							<linearGradient id="SVGID_3_" gradientUnits="userSpaceOnUse" x1="-999.771" y1="205.9902" x2="-967.1295" y2="205.9902" gradientTransform="matrix(-0.5284 -0.849 0.849 -0.5284 48.5356 -498.1123)">
								<stop offset="0" style="stop-color:#DF737D"></stop>
								<stop offset="1" style="stop-color:#CB5078"></stop>
							</linearGradient>
							<path fill="url(#SVGID_3_)" d="M731.905,216.989c0.582-0.564,1.136-1.156,1.763-1.673c0.599-0.549,1.252-1.031,1.894-1.53
								c0.667-0.459,1.321-0.943,2.021-1.354c0.683-0.438,1.398-0.822,2.106-1.22c0.724-0.364,1.441-0.747,2.187-1.068
								c0.735-0.346,1.492-0.64,2.245-0.946c0.763-0.278,1.521-0.568,2.297-0.81c0.77-0.262,1.553-0.479,2.333-0.706
								c0.786-0.206,1.571-0.415,2.365-0.589c0.791-0.188,1.589-0.343,2.388-0.489c0.799-0.147,1.602-0.271,2.406-0.391
								c0.805-0.111,1.611-0.215,2.419-0.3c1.616-0.175,3.238-0.29,4.863-0.339c1.626-0.046,3.248-0.054,4.88,0.036l0.18,0.009
								l0.011,0.18c0.1,1.59,0.126,3.177,0.127,4.766c-0.002,1.587-0.04,3.174-0.122,4.761c-0.169,3.169-0.501,6.335-1.137,9.449
								c-0.324,1.554-0.73,3.096-1.291,4.585c-0.563,1.484-1.267,2.935-2.271,4.185c-0.117,0.164-0.254,0.309-0.394,0.452
								c-0.141,0.146-0.27,0.29-0.42,0.437l-0.915,0.76l-0.457,0.379c-0.161,0.117-0.33,0.223-0.495,0.335l-0.996,0.666
								c-0.676,0.422-1.381,0.791-2.07,1.188l-2.136,1.057l-2.169,0.98l-2.187,0.939l-4.385,1.838
								c-1.462,0.611-2.915,1.24-4.363,1.881l-2.163,0.978l-2.142,1.024c-0.717,0.334-1.421,0.693-2.122,1.061
								c-0.7,0.368-1.41,0.717-2.101,1.1c-1.372,0.785-2.767,1.53-4.093,2.391c-0.666,0.425-1.351,0.821-2.001,1.268l-1.95,1.347
								c-0.659,0.437-1.284,0.92-1.909,1.402l-1.881,1.438l-0.194,0.149l-0.156-0.173c-0.624-0.692-1.144-1.467-1.566-2.291
								c-0.389-0.837-0.734-1.697-0.945-2.591c-0.135-0.44-0.194-0.896-0.294-1.344c-0.066-0.453-0.139-0.905-0.184-1.36
								c-0.084-0.91-0.131-1.823-0.109-2.735c0.001-0.457,0.018-0.913,0.055-1.366c0.023-0.456,0.07-0.908,0.123-1.36
								c0.042-0.453,0.111-0.902,0.179-1.353c0.061-0.451,0.148-0.897,0.232-1.344c0.078-0.448,0.18-0.891,0.28-1.333
								c0.094-0.444,0.208-0.884,0.326-1.323c0.11-0.44,0.233-0.878,0.369-1.311c0.129-0.435,0.262-0.869,0.414-1.296
								c0.283-0.862,0.606-1.711,0.939-2.553l0.523-1.255l0.558-1.239c0.393-0.817,0.788-1.631,1.22-2.428
								c0.206-0.403,0.434-0.794,0.657-1.188c0.222-0.394,0.448-0.787,0.688-1.17c0.461-0.779,0.966-1.53,1.463-2.285
								c0.514-0.745,1.033-1.486,1.584-2.204c0.266-0.366,0.555-0.714,0.837-1.067c0.281-0.354,0.565-0.705,0.866-1.043
								C730.669,218.31,731.289,217.651,731.905,216.989z M731.94,217.023c-0.61,0.666-1.225,1.327-1.799,2.024
								c-0.297,0.34-0.579,0.692-0.857,1.048c-0.279,0.355-0.565,0.704-0.828,1.071c-0.545,0.721-1.058,1.463-1.564,2.211
								c-0.491,0.757-0.975,1.52-1.422,2.303c-0.233,0.387-0.452,0.781-0.665,1.179c-0.215,0.396-0.435,0.79-0.633,1.195
								c-0.415,0.8-0.795,1.618-1.17,2.438l-0.53,1.243l-0.495,1.257c-0.315,0.843-0.618,1.693-0.882,2.553
								c-0.142,0.427-0.265,0.86-0.384,1.294c-0.127,0.431-0.245,0.865-0.349,1.302c-0.112,0.436-0.219,0.873-0.307,1.313
								c-0.095,0.44-0.19,0.879-0.261,1.322c-0.079,0.442-0.159,0.884-0.213,1.331c-0.063,0.444-0.126,0.889-0.162,1.335
								c-0.047,0.446-0.087,0.893-0.104,1.34c-0.03,0.448-0.047,0.895-0.047,1.343c-0.02,0.896,0.029,1.789,0.113,2.677
								c0.044,0.444,0.116,0.885,0.181,1.326c0.099,0.434,0.156,0.878,0.288,1.303c0.206,0.867,0.541,1.692,0.914,2.491
								c0.404,0.785,0.899,1.518,1.486,2.168l-0.349-0.024l1.892-1.454c0.63-0.486,1.256-0.978,1.923-1.412l1.97-1.346
								c0.658-0.447,1.349-0.842,2.021-1.265c1.339-0.86,2.745-1.604,4.128-2.384c0.697-0.382,1.412-0.729,2.117-1.095
								c0.705-0.366,1.414-0.723,2.136-1.054l2.157-1.009l2.18-0.958c1.458-0.626,2.921-1.24,4.39-1.836l4.405-1.791l2.192-0.913
								l2.171-0.96l2.135-1.035c0.687-0.389,1.392-0.751,2.063-1.162l0.985-0.648c0.164-0.11,0.331-0.213,0.492-0.327l0.46-0.376
								l0.92-0.753c0.26-0.278,0.562-0.544,0.795-0.857c0.992-1.22,1.714-2.647,2.268-4.124c0.548-1.482,0.943-3.019,1.257-4.567
								c0.627-3.103,0.897-6.267,1.023-9.427c0.115-3.162,0.074-6.334-0.125-9.484l0.19,0.189c-1.604-0.082-3.226-0.067-4.838-0.013
								c-1.614,0.063-3.227,0.171-4.834,0.326c-0.804,0.077-1.606,0.174-2.407,0.278c-0.799,0.112-1.599,0.229-2.395,0.368
								c-0.795,0.143-1.591,0.285-2.38,0.455c-0.792,0.159-1.577,0.352-2.362,0.542c-0.78,0.21-1.563,0.412-2.333,0.658
								c-0.776,0.225-1.536,0.501-2.3,0.764c-0.754,0.29-1.513,0.569-2.251,0.9c-0.749,0.307-1.469,0.676-2.197,1.026
								c-0.714,0.381-1.432,0.754-2.115,1.189c-0.701,0.405-1.355,0.883-2.024,1.337c-0.642,0.493-1.297,0.969-1.896,1.513
								C733.084,215.874,732.525,216.463,731.94,217.023z"></path>
							<linearGradient id="SVGID_4_" gradientUnits="userSpaceOnUse" x1="-977.6064" y1="240.3848" x2="-909.2734" y2="240.3848" gradientTransform="matrix(-0.5284 -0.849 0.849 -0.5284 48.5356 -498.1123)">
								<stop offset="0" style="stop-color:#DF737D"></stop>
								<stop offset="1" style="stop-color:#CB5078"></stop>
							</linearGradient>
							<path fill="url(#SVGID_4_)" d="M736.712,184.343c0.408,0.699,0.784,1.419,1.247,2.083c0.427,0.688,0.927,1.325,1.407,1.976
								c0.519,0.621,1.016,1.26,1.579,1.842c0.536,0.607,1.124,1.164,1.705,1.726c0.604,0.538,1.195,1.09,1.831,1.591
								c0.619,0.521,1.271,0.999,1.916,1.485c0.663,0.463,1.317,0.938,2.002,1.367c0.672,0.449,1.37,0.857,2.062,1.274
								c0.703,0.399,1.404,0.8,2.122,1.171c0.712,0.381,1.438,0.735,2.164,1.09c0.726,0.354,1.462,0.686,2.201,1.014
								c0.742,0.319,1.485,0.633,2.237,0.93c1.503,0.591,3.025,1.137,4.559,1.643c1.536,0.496,3.091,0.956,4.655,1.318l-0.235,0.129
								c1.057-2.974,1.97-6.012,2.728-9.083c0.748-3.073,1.359-6.189,1.609-9.345c0.124-1.576,0.166-3.162,0.047-4.737
								c-0.126-1.573-0.428-3.144-1.045-4.589c-0.139-0.366-0.356-0.704-0.529-1.044l-0.678-0.976l-0.338-0.488
								c-0.124-0.153-0.255-0.299-0.383-0.449l-0.769-0.894c-0.531-0.581-1.111-1.122-1.664-1.685l-1.768-1.582l-1.823-1.52
								l-1.857-1.481l-3.742-2.933c-1.25-0.977-2.487-1.969-3.716-2.973l-1.832-1.52l-1.796-1.563
								c-0.603-0.518-1.187-1.056-1.764-1.602s-1.169-1.077-1.734-1.635c-1.115-1.132-2.263-2.233-3.314-3.427
								c-0.531-0.592-1.086-1.162-1.596-1.772l-1.523-1.836c-0.522-0.601-0.988-1.246-1.46-1.886l-1.42-1.917l0.342,0.072
								c-0.744,0.465-1.421,1.032-2.025,1.675c-0.579,0.667-1.126,1.368-1.563,2.145c-0.244,0.372-0.421,0.783-0.635,1.173
								c-0.184,0.406-0.374,0.809-0.539,1.225c-0.325,0.831-0.618,1.677-0.845,2.543c-0.123,0.431-0.23,0.866-0.324,1.304
								c-0.107,0.435-0.19,0.875-0.269,1.317c-0.088,0.44-0.149,0.884-0.212,1.329c-0.071,0.443-0.114,0.89-0.161,1.337
								c-0.054,0.446-0.083,0.895-0.113,1.343c-0.036,0.447-0.053,0.896-0.065,1.346c-0.021,0.45-0.026,0.9-0.023,1.349
								c-0.004,0.451-0.004,0.9,0.015,1.35c0.017,0.9,0.074,1.8,0.146,2.697l0.13,1.345l0.168,1.341
								c0.135,0.891,0.275,1.782,0.455,2.666c0.079,0.445,0.181,0.883,0.28,1.324c0.095,0.441,0.196,0.88,0.315,1.315
								c0.215,0.876,0.471,1.742,0.733,2.606c0.282,0.858,0.571,1.713,0.896,2.555c0.151,0.426,0.331,0.84,0.501,1.258
								c0.169,0.418,0.344,0.835,0.536,1.245C735.9,182.729,736.309,183.535,736.712,184.343z M736.669,184.366
								c-0.41-0.806-0.826-1.61-1.193-2.436c-0.195-0.409-0.373-0.824-0.546-1.243c-0.174-0.417-0.356-0.831-0.511-1.256
								c-0.333-0.841-0.628-1.696-0.917-2.554c-0.271-0.863-0.549-1.724-0.78-2.601c-0.125-0.434-0.235-0.874-0.339-1.314
								c-0.107-0.439-0.218-0.878-0.305-1.322c-0.197-0.885-0.354-1.776-0.506-2.669l-0.196-1.346l-0.158-1.35
								c-0.089-0.902-0.166-1.806-0.202-2.712c-0.027-0.453-0.036-0.907-0.041-1.36c-0.011-0.454-0.009-0.908,0.006-1.361
								c0.007-0.454,0.019-0.908,0.051-1.362c0.024-0.454,0.048-0.908,0.097-1.359c0.042-0.452,0.08-0.906,0.146-1.355
								c0.058-0.451,0.115-0.902,0.2-1.349c0.074-0.45,0.153-0.898,0.256-1.342c0.089-0.447,0.198-0.889,0.323-1.328
								c0.229-0.882,0.527-1.749,0.857-2.601c0.168-0.424,0.362-0.84,0.55-1.257c0.219-0.403,0.402-0.825,0.653-1.211
								c0.449-0.802,1.059-1.468,1.662-2.165c0.632-0.676,1.385-1.213,2.178-1.707l0.196-0.122l0.104,0.128l1.393,1.869
								c0.468,0.636,0.926,1.255,1.439,1.856l1.5,1.822c0.502,0.608,1.049,1.174,1.573,1.765c1.038,1.192,2.173,2.291,3.276,3.422
								c0.559,0.559,1.145,1.088,1.717,1.635s1.15,1.085,1.748,1.602l1.777,1.574l1.81,1.535c1.216,1.015,2.44,2.019,3.678,3.008
								l3.71,2.974l1.844,1.503l1.817,1.54l1.763,1.603c0.553,0.572,1.129,1.12,1.663,1.711l0.774,0.915
								c0.127,0.153,0.26,0.303,0.384,0.458l0.335,0.49l0.67,0.982c0.104,0.184,0.188,0.357,0.284,0.536
								c0.095,0.176,0.187,0.354,0.254,0.542c0.621,1.478,0.899,3.066,1.032,4.648c0.129,1.586,0.096,3.179-0.02,4.763
								c-0.245,3.168-0.796,6.304-1.506,9.398c-0.356,1.548-0.758,3.084-1.192,4.612c-0.438,1.527-0.899,3.044-1.432,4.546
								l-0.061,0.17l-0.175-0.04c-1.594-0.362-3.151-0.815-4.702-1.308c-1.548-0.494-3.077-1.05-4.582-1.663
								c-0.753-0.304-1.5-0.626-2.244-0.953c-0.74-0.337-1.477-0.677-2.205-1.038c-0.729-0.36-1.453-0.729-2.162-1.127
								c-0.715-0.386-1.413-0.803-2.112-1.217c-0.687-0.433-1.38-0.855-2.048-1.319c-0.68-0.446-1.33-0.935-1.986-1.411
								c-0.64-0.5-1.287-0.991-1.899-1.526c-0.628-0.513-1.213-1.079-1.81-1.629c-0.57-0.577-1.153-1.143-1.689-1.752
								c-0.561-0.587-1.056-1.231-1.572-1.857c-0.479-0.655-0.975-1.298-1.398-1.991
								C737.443,185.791,737.073,185.068,736.669,184.366z"></path>
						</g>
					</g>
					<g>
						<g>
							<polygon fill="#FFFFFF" points="779.457,224.612 1520.375,224.612 1497.947,261.16 802.714,261.16 							"></polygon>
							<rect x="779.457" y="208" fill="#DEC5AE" width="740.918" height="16.612"></rect>
						</g>
					</g>
					<g>
						<rect x="964" y="81" fill="#F8D06C" width="33" height="127"></rect>
						<rect x="993" y="81" fill="#E5B855" width="4" height="127"></rect>
						<rect x="964" y="81" fill="#E5B855" width="12" height="127"></rect>
					</g>
					<g>
						<rect x="1339" y="81" fill="#4BAF87" width="21" height="127"></rect>
						<rect x="1339" y="96" fill="#7EE0B8" width="21" height="4"></rect>
						<rect x="1339" y="141" fill="#7EE0B8" width="21" height="4"></rect>
						<rect x="1339" y="186" fill="#7EE0B8" width="21" height="4"></rect>
					</g>
					<g>
						<rect x="1370" y="77" fill="#F8D06C" width="25" height="131"></rect>
						<rect x="1376" y="77" fill="#EDBD51" width="13" height="131"></rect>
						<rect x="1376" y="96" fill="#E2B04D" width="13" height="4"></rect>
						<rect x="1376" y="108" fill="#E2B04D" width="13" height="4"></rect>
						<rect x="1376" y="120" fill="#E2B04D" width="13" height="4"></rect>
						<rect x="1376" y="132" fill="#E2B04D" width="13" height="4"></rect>
						<rect x="1376" y="144" fill="#E2B04D" width="13" height="4"></rect>
						<rect x="1376" y="156" fill="#E2B04D" width="13" height="4"></rect>
						<rect x="1376" y="168" fill="#E2B04D" width="13" height="4"></rect>
						<rect x="1376" y="180" fill="#E2B04D" width="13" height="4"></rect>
					</g>
					<g>
						<rect x="1005" y="59" fill="#FFFFFF" width="42" height="149"></rect>
						<g>
							<polyline fill="none" stroke="#62CCA3" stroke-width="0.9328" stroke-linecap="round" stroke-linejoin="round" points="
								1007.529,60.217 1007.971,59.931 1007.53,62.232 1011.09,59.928 1007.53,63.521 1013.08,59.927 1007.529,64.974
								1015.328,59.925 1007.529,66.367 1017.482,59.923 1007.53,67.673 1019.502,59.921 1007.53,69.036 1021.607,59.92
								1007.53,70.613 1024.047,59.918 1007.529,72.65 1027.197,59.915 1007.53,74.326 1029.789,59.913 1007.53,75.663
								1031.857,59.911 1007.53,77.422 1034.577,59.91 1007.53,78.987 1036.996,59.908 1007.53,80.311 1039.043,59.906
								1007.53,82.391 1042.26,59.903 1007.53,83.917 1044.473,59.997 1007.53,85.709 1044.474,61.788 1007.53,87.693
								1044.474,63.772 1007.529,89.881 1044.474,65.959 1007.529,91.662 1044.475,67.739 1007.529,92.938 1044.475,69.015
								1007.529,94.762 1044.475,70.84 1007.53,97.032 1044.476,73.11 1007.529,98.342 1044.476,74.419 1007.53,100.301
								1044.477,76.378 1007.529,102.174 1044.477,78.25 1007.529,104.215 1044.478,80.291 1007.53,105.556 1044.478,81.632
								1007.53,107.384 1044.478,83.461 1007.53,108.533 1044.478,84.61 1007.53,110.64 1044.478,86.716 1007.53,112.847
								1044.479,88.923 1007.529,115.091 1044.479,91.167 1007.529,117.071 1044.479,93.146 1007.53,118.295 1044.479,94.371
								1007.53,120.117 1044.479,96.191 1007.529,122.335 1044.479,98.409 1007.53,124.153 1044.48,100.227 1007.53,126.179
								1044.48,102.253 1007.53,127.93 1044.481,104.003 1007.53,129.375 1044.481,105.449 1007.53,131.525 1044.481,107.599
								1007.529,132.677 1044.481,108.75 1007.53,134.736 1044.482,110.81 1007.53,136.208 1044.482,112.281 1007.53,137.908
								1044.482,113.981 1007.53,139.814 1044.483,115.887 1007.53,141.912 1044.483,117.984 1007.53,143.631 1044.484,119.703
								1007.529,145.863 1044.484,121.934 1007.53,147.276 1044.484,123.348 1007.53,149.383 1044.484,125.455 1007.53,150.797
								1044.484,126.869 1007.53,152.938 1044.486,129.01 1007.529,154.73 1044.486,130.801 1007.53,155.892 1044.486,131.963
								1007.53,157.756 1044.486,133.827 1007.53,159.332 1044.486,135.402 1007.53,161.209 1044.487,137.279 1007.53,163.47
								1044.487,139.54 1007.53,165.35 1044.487,141.419 1007.53,167.613 1044.488,143.683 1007.529,169.538 1044.488,145.607
								1007.53,171.389 1044.488,147.458 1007.53,172.693 1044.489,148.762 1007.53,174.517 1044.489,150.585 1007.53,176.287
								1044.49,152.355 1007.53,178.26 1044.49,154.328 1007.53,180.311 1044.49,156.379 1007.53,182.567 1044.491,158.634
								1007.53,184.611 1044.491,160.679 1007.53,186.383 1044.492,162.45 1007.53,188.588 1044.492,164.655 1007.53,190.155
								1044.492,166.222 1007.53,191.651 1044.492,167.717 1007.53,193.67 1044.492,169.736 1007.53,195.902 1044.493,171.968
								1007.53,197.846 1044.493,173.913 1007.53,200.123 1044.493,176.188 1007.53,202.297 1044.494,178.362 1007.53,204.07
								1044.494,180.136 1007.53,206.333 1044.495,182.398 1008.568,207.097 1044.495,183.834 1011.631,207.095 1044.496,185.814
								1013.918,207.093 1044.496,187.293 1016.26,207.091 1044.496,188.808 1019.578,207.089 1044.497,190.953 1022.578,207.086
								1044.497,192.894 1025.778,207.084 1044.498,194.962 1028.055,207.082 1044.498,196.435 1029.905,207.081 1044.498,197.631
								1033.204,207.078 1044.499,199.764 1035.313,207.076 1044.498,201.128 1038.542,207.074 1044.499,203.217 1040.36,207.072
								1044.5,204.392 1042.964,207.07 1044.5,206.076 							"></polyline>
						</g>
						<rect x="1038" y="59" fill="#FFFFFF" width="9" height="149"></rect>
						<rect x="1005" y="59" fill="#FFFFFF" width="9" height="149"></rect>
					</g>
					<g>
						<rect x="1274.021" y="45.443" transform="matrix(0.9809 -0.1947 0.1947 0.9809 0.3604 254.551)" fill="#CF5A20" width="42" height="159.999"></rect>
						<rect x="1306.705" y="42.23" transform="matrix(0.9809 -0.1947 0.1947 0.9809 1.2957 257.6409)" fill="#F7B89C" width="9" height="160"></rect>
						<rect x="1274.337" y="48.656" transform="matrix(0.9809 -0.1947 0.1947 0.9809 -0.5724 251.4883)" fill="#F7B89C" width="8.999" height="159.999"></rect>
					</g>
					<g>
						<rect x="1062.447" y="64.672" transform="matrix(0.9946 0.1037 -0.1037 0.9946 19.8771 -111.1164)" fill="#DEAEBA" width="33" height="142"></rect>
						<rect x="1088.378" y="66.019" transform="matrix(0.9946 0.1037 -0.1037 0.9946 20.0858 -112.4467)" fill="#E5BDC8" width="7" height="142"></rect>
						<rect x="1062.517" y="63.324" transform="matrix(0.9946 0.1036 -0.1036 0.9946 19.6636 -109.7654)" fill="#E5BDC8" width="7.001" height="142"></rect>
					</g>
					<g>
						<rect x="1102" y="86" fill="#62CCA3" width="36" height="122"></rect>
						<rect x="1130" y="86" fill="#59C197" width="8" height="122"></rect>
						<rect x="1102" y="86" fill="#59C197" width="8" height="122"></rect>
					</g>
					<g>
						<rect x="1229" y="86" fill="#DEAEBA" width="36" height="122"></rect>
						<rect x="1229" y="86" fill="#999999" width="8" height="122"></rect>
						<rect x="1229" y="137" fill="#666666" width="36" height="20"></rect>
					</g>
					<g>
						<rect x="1145" y="69" fill="#D86430" width="36" height="139"></rect>
						<rect x="1173" y="69" fill="#CF5A20" width="8" height="139"></rect>
						<rect x="1145" y="69" fill="#CF5A20" width="8" height="139"></rect>
						<rect x="1159" y="69" fill="#CF5A20" width="8" height="139"></rect>
					</g>
					<rect x="1193" y="63" fill="#F2D6C9" width="25" height="145"></rect>
				</g>
				<g>
					<g>
						<rect x="505.399" y="279.09" transform="matrix(0.9845 0.1755 -0.1755 0.9845 68.2186 -86.2697)" fill="#B2B2B2" width="33" height="127"></rect>
						<rect x="531.198" y="281.371" transform="matrix(0.9845 0.1755 -0.1755 0.9845 68.8272 -88.4907)" fill="#999999" width="7" height="127"></rect>
						<rect x="505.601" y="276.809" transform="matrix(0.9845 0.1755 -0.1755 0.9845 67.624 -84.0638)" fill="#999999" width="7" height="127"></rect>
					</g>
					<g>
						<rect x="549" y="259" fill="#62CCA3" width="42" height="149"></rect>
						<rect x="582" y="259" fill="#50A37F" width="9" height="149"></rect>
						<rect x="549" y="259" fill="#50A37F" width="9" height="149"></rect>
					</g>
					<g>
						<rect x="595" y="266" fill="#F8D06C" width="33" height="142"></rect>
						<rect x="621" y="266" fill="#F7D68D" width="7" height="142"></rect>
						<rect x="595" y="266" fill="#F7D68D" width="7" height="142"></rect>
					</g>
					<g>
						<rect x="635.11" y="284.935" transform="matrix(0.9978 0.0667 -0.0667 0.9978 24.53 -42.7949)" fill="#D7F9F3" width="36" height="122"></rect>
						<rect x="635.141" y="284.001" transform="matrix(0.9978 0.0667 -0.0667 0.9978 24.4166 -41.8333)" fill="#CF5A20" width="8" height="122"></rect>
						<rect x="663.141" y="286.001" transform="matrix(0.9978 0.0667 -0.0667 0.9978 24.6121 -43.6951)" fill="#CF5A20" width="8" height="122"></rect>
					</g>
					<g>
						<rect x="675" y="269" fill="#F7B89C" width="36" height="139"></rect>
						<rect x="703" y="269" fill="#999999" width="8" height="139"></rect>
						<rect x="675" y="269" fill="#999999" width="8" height="139"></rect>
					</g>
					<g>
						<rect x="722.875" y="261.931" transform="matrix(0.9863 -0.1649 0.1649 0.9863 -45.0725 125.8111)" fill="#CE7421" width="25" height="145"></rect>
						<rect x="742.739" y="260.283" transform="matrix(0.9863 -0.1648 0.1648 0.9863 -44.6617 127.3994)" fill="#D67E36" width="5" height="145"></rect>
						<rect x="723.005" y="263.498" transform="matrix(0.9863 -0.1649 0.1649 0.9863 -45.4617 124.2977)" fill="#D67E36" width="6" height="145"></rect>
					</g>
					<g>
						<rect x="304.082" y="408.15" fill="#DEC5AE" width="740.918" height="16.613"></rect>
					</g>
					<g>
						<g>
							<g>
								<g>
									<g>
										<path fill="#FFFFFF" d="M372.101,299.35l-0.939-3.038c-5.197-16.813-3.883-30.69,3.903-41.248
											c15.995-21.686,54.82-22.784,62.44-22.784c1.121,0,1.739,0.021,1.739,0.021l0.011,0.999
											c-0.299,0.017-30.102,1.904-49.909,19.844c-8.761,7.936-16.91,18.641-17.207,43.026L372.101,299.35z M430.129,233.535
											c-14.067,0.905-41.566,4.914-54.26,22.123c-7.108,9.638-8.666,22.163-4.643,37.267
											c0.957-22.502,8.917-32.795,17.448-40.522C401.933,240.395,419.584,235.488,430.129,233.535z"></path>
									</g>
									<g>
										<path fill="#FFFFFF" d="M363.84,351.419C363.84,351.419,363.84,351.419,363.84,351.419c-1.811,0-4.278-0.814-5.754-4.69
											l-0.075-0.198l0.09-0.192c0.141-0.301,14.097-30.251,15.447-47.499c-0.697-24.504,7.105-35.688,15.639-44.114
											c19.271-19.031,49.308-22.231,49.609-22.261l0.413-0.041l0.117,0.397c5.065,17.222,3.759,31.527-3.883,42.517
											c-13.247,19.052-42.307,23.182-54.558,24.073c-5.219,15.384-13.354,42.769-11.264,49.403l0.105,0.335l-0.279,0.213
											C369.337,349.448,366.721,351.419,363.84,351.419z M359.097,346.568c1.026,2.556,2.621,3.851,4.743,3.851c0,0,0,0,0.001,0
											c2.049,0,4.022-1.186,4.728-1.659c-2.253-9.167,10.049-45.786,11.478-49.984l0.107-0.314l0.332-0.023
											c11.907-0.831,41.018-4.8,54.138-23.67c7.4-10.644,8.699-24.524,3.863-41.26c-3.662,0.455-30.803,4.36-48.595,21.93
											c-8.374,8.268-16.028,19.251-15.343,43.427C373.238,315.607,360.313,343.934,359.097,346.568z"></path>
									</g>
								</g>
								<g>
									<g>
										<path fill="#FFFFFF" d="M359.176,310.001l-0.039-3.18c-0.198-16.308-5.643-23.462-11.498-28.765
											c-13.251-12.003-33.205-13.268-33.405-13.279l0.011-0.999c0,0,0.417-0.015,1.173-0.015c5.129,0,31.265,0.741,42.05,15.362
											c5.261,7.132,6.15,16.498,2.646,27.837L359.176,310.001z M323.022,265.146c7.167,1.601,17.386,5.012,25.289,12.17
											c5.615,5.085,10.863,11.818,11.713,26.232c2.342-9.621,1.217-17.625-3.359-23.828
											C348.924,269.225,332.919,266.076,323.022,265.146z"></path>
									</g>
									<g>
										<path fill="#FFFFFF" d="M364.874,344.075c-1.99,0-3.789-1.356-3.865-1.414l-0.279-0.213l0.105-0.335
											c1.386-4.397-4.027-22.632-7.525-32.961c-8.311-0.617-27.747-3.432-36.641-16.223c-5.16-7.421-6.044-17.071-2.629-28.683
											l0.117-0.397l0.413,0.041c0.203,0.021,20.425,2.175,33.404,14.991c5.755,5.684,11.017,13.225,10.549,29.772
											c0.902,11.496,10.259,31.576,10.354,31.777l0.09,0.192l-0.075,0.198C367.866,343.51,366.141,344.075,364.874,344.075z
											 M361.885,342.05c0.525,0.339,1.742,1.024,2.989,1.024c1.333,0,2.343-0.813,3.005-2.417
											c-1.037-2.236-9.475-20.732-10.355-31.98c0.456-16.219-4.658-23.561-10.253-29.085
											c-11.706-11.559-29.468-14.281-32.389-14.658c-3.187,11.125-2.31,20.35,2.609,27.424
											c8.768,12.61,28.251,15.265,36.221,15.82l0.332,0.023l0.107,0.314C355.104,311.321,363.277,335.653,361.885,342.05z"></path>
									</g>
								</g>
							</g>
							<g>
								<g>
									<path fill="#8CC63F" d="M389.01,252.774c20.175-18.273,50.216-19.973,50.216-19.973s-88.105-3.017-67.587,63.363
										C371.915,273.5,378.662,262.147,389.01,252.774z"></path>
									<path fill="#8CC63F" d="M438.846,232.963c0,0-29.94,2.993-49.308,22.12c-9.891,9.766-16.127,21.343-15.492,43.797
										c-1.374,17.54-15.493,47.671-15.493,47.671c3.098,8.133,10.591,2.415,10.591,2.415
										c-2.65-8.414,10.147-46.422,11.375-50.029C399.914,297.584,455.282,288.85,438.846,232.963z"></path>
								</g>
								<g>
									<path fill="#8CC63F" d="M347.976,277.686c-13.543-12.268-33.712-13.408-33.712-13.408s59.148-2.026,45.374,42.538
										C359.453,291.601,354.923,283.979,347.976,277.686z"></path>
									<path fill="#8CC63F" d="M314.52,264.387c0,0,20.099,2.009,33.103,14.849c6.639,6.557,10.826,14.328,10.4,29.402
										c0.921,11.775,10.401,32.003,10.401,32.003c-2.079,5.46-7.11,1.622-7.11,1.622c1.78-5.649-6.812-31.165-7.636-33.586
										C340.656,307.769,303.486,301.905,314.52,264.387z"></path>
								</g>
							</g>
						</g>
						<polygon fill="#FFFFFF" points="398,408 336,408 331,337 403,337 						"></polygon>
					</g>
					<g>
						<rect x="797.164" y="364.113" fill="#666666" width="75.926" height="44.037"></rect>
						<polygon fill="#333333" points="873.09,408.086 879.164,408.15 879.164,376.261 873.09,364.113 						"></polygon>
						<rect x="797.164" y="351.965" fill="#808080" width="75.926" height="12.148"></rect>
						<polygon fill="#4D4D4D" points="873.09,351.965 879.164,362.595 879.164,376.261 873.09,364.303 						"></polygon>
					</g>
					<g>
						<g>
							<rect x="887.5" y="335.65" fill="#666666" width="125" height="72.5"></rect>
							<polygon fill="#333333" points="1012.5,408.045 1022.5,408.15 1022.5,355.65 1012.5,335.65 							"></polygon>
							<rect x="887.5" y="315.65" fill="#808080" width="125" height="20"></rect>
							<polygon fill="#4D4D4D" points="1012.5,315.65 1022.5,333.15 1022.5,355.65 1012.5,335.963 							"></polygon>
						</g>
						<rect x="928.75" y="353.981" fill="#333333" width="42.5" height="17.5"></rect>
						<linearGradient id="SVGID_7_" gradientUnits="userSpaceOnUse" x1="924.2832" y1="325.6504" x2="1012.5" y2="325.6504">
							<stop offset="0" style="stop-color:#6E6E6E"></stop>
							<stop offset="0.1412" style="stop-color:#767676"></stop>
							<stop offset="0.3993" style="stop-color:#7E7E7E"></stop>
							<stop offset="0.9462" style="stop-color:#808080"></stop>
						</linearGradient>
						<polygon fill="url(#SVGID_7_)" points="924.283,315.65 969.042,335.65 1012.5,335.65 1012.5,315.65 						"></polygon>
					</g>
					<g>
						<rect x="828.673" y="326.397" fill="#666666" width="44.444" height="25.778"></rect>
						<polygon fill="#333333" points="873.117,352.137 876.673,358.31 876.673,333.508 873.117,326.397 						"></polygon>
						<rect x="828.673" y="319.286" fill="#808080" width="44.444" height="7.111"></rect>
						<polygon fill="#4D4D4D" points="873.117,319.286 876.673,325.508 876.673,333.508 873.117,326.508 						"></polygon>
						<rect x="843" y="333.508" fill="#333333" width="15.111" height="6.222"></rect>
					</g>
				</g>
				<g>
					<g>
						<rect x="506.699" y="647" fill="#DEC5AE" width="787.432" height="16.613"></rect>
						<rect x="506.699" y="706.807" fill="#DEC5AE" width="787.432" height="16.611"></rect>
						<polygon fill="#FFFFFF" points="505.869,647 544.077,627.066 1257.584,627.066 1294.131,647 						"></polygon>
						<g>
							<linearGradient id="SVGID_8_" gradientUnits="userSpaceOnUse" x1="506.6987" y1="1185.3105" x2="988.6992" y2="1185.3105">
								<stop offset="0" style="stop-color:#349C7E"></stop>
								<stop offset="0.026" style="stop-color:#38A082"></stop>
								<stop offset="0.1533" style="stop-color:#47AF91"></stop>
								<stop offset="0.3051" style="stop-color:#4FB799"></stop>
								<stop offset="0.543" style="stop-color:#52BA9C"></stop>
							</linearGradient>
							<polygon fill="url(#SVGID_8_)" points="506.699,1095.311 529.699,1095.311 988.699,1226.311 913.611,1275.311 							"></polygon>
							<rect x="506.699" y="663.613" fill="#FFFFFF" width="23.257" height="431.697"></rect>
						</g>
						<g>
							<linearGradient id="SVGID_9_" gradientUnits="userSpaceOnUse" x1="1270.6953" y1="1185.3105" x2="1752.6963" y2="1185.3105">
								<stop offset="0" style="stop-color: rgb(16, 16, 32);"></stop>
								<stop offset="0.543" style="stop-color: rgb(39, 30, 62);"></stop>
							</linearGradient>
							<polygon points="1270.695,1095.311 1293.695,1095.311 1752.696,1226.311 1677.608,1275.311 							" fill="url(#SVGID_9_)"></polygon>
							<rect x="1270.874" y="663.613" fill="#FFFFFF" width="23.257" height="431.697"></rect>
						</g>
					</g>
					<g id="monitor" style="cursor: pointer">
						<polygon fill="#808080" points="828.566,497.489 1001.336,497.489 1001.336,623.744 827.736,623.744 						"></polygon>
						<polygon fill="#FFFFFF" points="837.204,504.134 991.369,504.134 991.369,617.1 836.457,617.1 						"></polygon>
						<polygon fill="#999999" points="1001.336,623.744 984.723,637.033 798.664,637.033 827.736,623.744 						"></polygon>
						<rect x="798.664" y="637.033" fill="#808080" width="186.059" height="6.646"></rect>
						<polygon fill="#333333" points="1001.336,623.744 1001.336,633.711 984.723,643.68 984.723,637.033 						"></polygon>
					</g>
					<g>
						<linearGradient id="SVGID_10_" gradientUnits="userSpaceOnUse" x1="1105.7266" y1="636.1895" x2="1106.9218" y2="649.8502">
							<stop offset="0" style="stop-color:#B3B3B3"></stop>
							<stop offset="0.0116" style="stop-color:#B6B6B6"></stop>
							<stop offset="0.1521" style="stop-color:#D0D0D0"></stop>
							<stop offset="0.3049" style="stop-color:#E5E5E5"></stop>
							<stop offset="0.4765" style="stop-color:#F4F4F4"></stop>
							<stop offset="0.6804" style="stop-color:#FCFCFC"></stop>
							<stop offset="1" style="stop-color:#FFFFFF"></stop>
						</linearGradient>
						<polygon fill="url(#SVGID_10_)" points="1071.549,639.18 1114.74,639 1141.1,646.86 1090.086,647 						"></polygon>
						<path fill="#F2F2F2" d="M1114.74,593.793v-11.097h-43.191v56.483h43.191v-9.969c9.804,0,17.712-7.906,17.712-17.709
							S1124.544,593.793,1114.74,593.793z M1114.74,624.229v-25.452c7.045,0,12.728,5.68,12.728,12.725
							S1121.785,624.229,1114.74,624.229z"></path>
					</g>
					<g>
						<g>
							<g>
								<rect x="697.793" y="543.181" transform="matrix(0.9511 -0.309 0.309 0.9511 -143.9565 244.3634)" fill="#E58645" width="3.464" height="67"></rect>
								<rect x="699.482" y="542.913" transform="matrix(0.9511 -0.3089 0.3089 0.9511 -143.8191 244.5681)" fill="#CF5A20" width="1.732" height="67"></rect>
								<rect x="688.331" y="547.075" transform="matrix(0.9511 -0.309 0.309 0.9511 -135.4199 240.0145)" fill="#218E6C" width="3.464" height="0.958"></rect>
								<rect x="688.578" y="548.14" transform="matrix(0.9511 -0.309 0.309 0.9511 -135.6434 240.1282)" fill="#218E6C" width="3.464" height="0.354"></rect>
								<rect x="688.054" y="546.525" transform="matrix(0.951 -0.3091 0.3091 0.951 -135.1969 239.9589)" fill="#218E6C" width="3.463" height="0.354"></rect>
								<rect x="687.72" y="544.776" transform="matrix(0.9511 -0.309 0.309 0.9511 -134.8687 239.731)" fill="#DEAEBA" width="3.462" height="1.802"></rect>
							</g>
							<g>
								<rect x="697.809" y="535.346" transform="matrix(0.9698 -0.2439 0.2439 0.9698 -117.6234 187.7812)" fill="#E5B34D" width="3.257" height="67.001"></rect>
								<rect x="699.414" y="535.149" transform="matrix(0.97 -0.2432 0.2432 0.97 -117.288 187.4032)" fill="#CF8F27" width="1.628" height="66.999"></rect>
								<rect x="690.346" y="538.666" transform="matrix(0.9698 -0.2438 0.2438 0.9698 -110.5528 184.9471)" fill="#265E8E" width="3.257" height="0.959"></rect>
								<rect x="690.541" y="539.746" transform="matrix(0.9699 -0.2436 0.2436 0.9699 -110.6849 184.9013)" fill="#265E8E" width="3.257" height="0.354"></rect>
								<rect x="690.128" y="538.1" transform="matrix(0.9698 -0.2438 0.2438 0.9698 -110.3734 184.9261)" fill="#265E8E" width="3.256" height="0.354"></rect>
								<rect x="689.865" y="536.33" transform="matrix(0.9699 -0.2437 0.2437 0.9699 -110.0623 184.6846)" fill="#DEBEB6" width="3.256" height="1.802"></rect>
							</g>
							<g>
								<rect x="706.787" y="531.222" transform="matrix(0.9907 -0.1361 0.1361 0.9907 -70.2711 101.6787)" fill="#E58645" width="3.283" height="67"></rect>
								<rect x="708.42" y="531.111" transform="matrix(0.9907 -0.136 0.136 0.9907 -70.1801 101.6734)" fill="#CF5A20" width="1.641" height="67"></rect>
								<rect x="702.621" y="533.903" transform="matrix(0.9907 -0.1363 0.1363 0.9907 -66.2441 100.9429)" fill="#218E6C" width="3.283" height="0.959"></rect>
								<rect x="702.73" y="535" transform="matrix(0.9907 -0.136 0.136 0.9907 -66.2233 100.7379)" fill="#218E6C" width="3.282" height="0.354"></rect>
								<rect x="702.499" y="533.318" transform="matrix(0.9907 -0.1361 0.1361 0.9907 -66.0781 100.8356)" fill="#218E6C" width="3.282" height="0.354"></rect>
								<rect x="702.352" y="531.526" transform="matrix(0.9907 -0.1361 0.1361 0.9907 -65.9341 100.8057)" fill="#DEAEBA" width="3.282" height="1.802"></rect>
							</g>
							<g>
								<rect x="706.928" y="543.286" transform="matrix(0.9366 -0.3505 0.3505 0.9366 -157.2204 284.9166)" fill="#40A080" width="3.109" height="67"></rect>
								<rect x="708.434" y="543.013" transform="matrix(0.9366 -0.3505 0.3505 0.9366 -157.0786 285.1545)" fill="#218E6C" width="1.555" height="67"></rect>
							</g>
							<g>
								<rect x="718.785" y="553.54" transform="matrix(0.9986 0.0521 -0.0521 0.9986 31.5713 -36.7529)" fill="#E58645" width="3.561" height="67.001"></rect>
								<rect x="720.564" y="553.587" transform="matrix(0.9986 0.0521 -0.0521 0.9986 31.566 -36.7892)" fill="#CF5A20" width="1.781" height="67.001"></rect>
								<rect x="720.384" y="555.978" transform="matrix(0.9986 0.052 -0.052 0.9986 29.8984 -36.7829)" fill="#218E6C" width="3.56" height="0.959"></rect>
								<rect x="720.343" y="557.082" transform="matrix(0.9986 0.0523 -0.0523 0.9986 30.1112 -36.9791)" fill="#218E6C" width="3.56" height="0.354"></rect>
								<rect x="720.432" y="555.386" transform="matrix(0.9986 0.0521 -0.0521 0.9986 29.9501 -36.9011)" fill="#218E6C" width="3.559" height="0.354"></rect>
								<rect x="720.488" y="553.585" transform="matrix(0.9986 0.0521 -0.0521 0.9986 29.8856 -36.8957)" fill="#DEAEBA" width="3.56" height="1.803"></rect>
							</g>
							<g>
								<rect x="714.5" y="535.514" transform="matrix(0.9996 0.0274 -0.0274 0.9996 15.8314 -19.3715)" fill="#E5D192" width="3.035" height="67"></rect>
								<rect x="716.017" y="535.535" transform="matrix(0.9996 0.027 -0.027 0.9996 15.6404 -19.1636)" fill="#CFB36D" width="1.518" height="67"></rect>
								<rect x="715.343" y="537.922" transform="matrix(0.9996 0.0274 -0.0274 0.9996 14.9944 -19.4059)" fill="#53608E" width="3.035" height="0.958"></rect>
								<rect x="715.32" y="539.025" transform="matrix(0.9996 0.0274 -0.0274 0.9996 15.0163 -19.405)" fill="#53608E" width="3.035" height="0.354"></rect>
								<rect x="715.367" y="537.328" transform="matrix(0.9996 0.0274 -0.0274 0.9996 14.9699 -19.4069)" fill="#53608E" width="3.035" height="0.354"></rect>
								<rect x="715.397" y="535.526" transform="matrix(0.9996 0.0275 -0.0275 0.9996 15.0323 -19.5242)" fill="#DEDEDE" width="3.034" height="1.802"></rect>
							</g>
							<g>
								<rect x="723.098" y="546.144" transform="matrix(0.9707 0.2404 -0.2404 0.9707 160.6216 -157.1977)" fill="#62CCA3" width="2.847" height="67"></rect>
								<rect x="724.5" y="546.315" transform="matrix(0.9704 0.2414 -0.2414 0.9704 161.4193 -157.9221)" fill="#50A37F" width="1.424" height="66.999"></rect>
							</g>
							<g>
								<rect x="727.454" y="549.5" transform="matrix(0.9676 0.2525 -0.2525 0.9676 170.8196 -165.223)" fill="#E58645" width="3.52" height="67.001"></rect>
								<rect x="729.185" y="549.723" transform="matrix(0.9675 0.253 -0.253 0.9675 171.2791 -165.7112)" fill="#CF5A20" width="1.76" height="67"></rect>
								<rect x="735.187" y="552.889" transform="matrix(0.9676 0.2524 -0.2524 0.9676 163.5128 -168.0753)" fill="#218E6C" width="3.521" height="0.958"></rect>
								<rect x="734.984" y="553.967" transform="matrix(0.9676 0.2525 -0.2525 0.9676 163.8243 -168.0958)" fill="#218E6C" width="3.521" height="0.354"></rect>
								<rect x="735.413" y="552.324" transform="matrix(0.9676 0.2523 -0.2523 0.9676 163.2761 -168.1405)" fill="#218E6C" width="3.522" height="0.354"></rect>
								<rect x="735.686" y="550.557" transform="matrix(0.9676 0.2526 -0.2526 0.9676 163.2192 -168.4004)" fill="#DEAEBA" width="3.52" height="1.803"></rect>
							</g>
							<path fill="#444F75" d="M725.356,542.796c0.003,0.253,0.012,0.507,0.022,0.76c-0.305,0.03-1.31,0.091-1.506,0.275
								c-0.095,0.089-0.151,0.228-0.182,0.389c-0.031-0.161-0.086-0.299-0.182-0.389c-0.196-0.184-1.201-0.245-1.505-0.275
								c0.009-0.253,0.019-0.507,0.022-0.76c0.029-2.493-0.856-5.328-3.289-6.461c-2.495-1.163-5.069,0.353-6.539,2.386
								c-2.382,3.296-3.239,8.128-1.785,11.958c0.79,2.083,2.289,3.73,4.159,4.908c1.208,0.761,2.82,1.248,3.79,2.334
								c0.84,0.941,0.834,2.334,0.909,3.521c0.116,1.843,0.294,3.673,0.522,5.505c0.228-0.314,0.537-0.496,0.717-0.852
								c0.219,1.417,0.404,2.837,0.657,4.248c0.297,1.662,0.497,3.33,0.835,4.987c0.44,2.155,0.431,4.389,0.585,6.58
								c0.12,1.708,0.329,3.414,0.488,5.119c0.134,1.44,0.093,2.912,0.2,4.358c0.02,0.751,0.087,1.475,0.254,2.125
								c0.071-0.001,0.122-0.023,0.159-0.059c0.038,0.036,0.088,0.058,0.159,0.059c0.513-1.999,0.862-3.989,1.185-6.027
								c0.269-1.694,0.393-2.81,0.499-4.446c0.115-1.78,0.273-3.545,0.308-5.326c0.021-1.089,0.026-2.285-0.124-3.368
								c-0.021-0.157-0.046-0.307-0.075-0.453c0.198-1.183,0.359-2.369,0.571-3.551c0.253-1.411,0.438-2.832,0.657-4.248
								c0.18,0.355,0.489,0.538,0.717,0.852c0.228-1.832,0.406-3.662,0.522-5.505c0.075-1.187,0.069-2.581,0.91-3.521
								c0.969-1.086,2.581-1.573,3.79-2.334c1.87-1.178,3.369-2.824,4.159-4.908c1.454-3.83,0.598-8.662-1.785-11.958
								c-1.469-2.033-4.043-3.549-6.538-2.386C726.213,537.468,725.326,540.303,725.356,542.796z M715.509,552.045
								c-2.844-0.723-3.495-3.588-3.718-6.127l-0.041-0.331c0.159-2.144,0.41-4.128,1.74-5.916c1.271-1.709,3.635-3.31,5.315-1.2
								c1.871,2.352,2.193,6.063,1.608,8.901C719.928,549.73,718.406,552.782,715.509,552.045z M725.009,557.227
								c0.054,1.118,0.061,2.241,0.006,3.359c-0.059,1.196-0.56,2.13-0.691,3.321c0.579,0.578-0.205,4.336-0.426,5.105
								c-0.059,0.203-0.128,0.401-0.207,0.597c-0.079-0.196-0.148-0.395-0.207-0.597c-0.221-0.769-1.005-4.527-0.427-5.105
								c-0.131-1.191-0.632-2.125-0.69-3.321c-0.055-1.118-0.048-2.241,0.006-3.359c0.079-1.61,0.025-3.197,0.206-4.799
								c0.166-1.469,0.249-2.942,0.246-4.421c-0.001-0.944-0.349-2.294,0.861-2.508c0-0.045,0.002-0.097,0.005-0.154
								c0.003,0.057,0.005,0.109,0.005,0.154c1.21,0.213,0.863,1.564,0.861,2.508c-0.003,1.479,0.081,2.952,0.246,4.421
								C724.983,554.03,724.93,555.617,725.009,557.227z M733.892,539.672c1.33,1.788,1.582,3.772,1.74,5.916l-0.041,0.331
								c-0.222,2.539-0.874,5.404-3.718,6.127c-2.896,0.736-4.419-2.315-4.905-4.672c-0.584-2.837-0.263-6.549,1.609-8.901
								C730.257,536.362,732.62,537.963,733.892,539.672z"></path>
							<g>
								<rect x="709.285" y="543.519" transform="matrix(0.9986 0.0523 -0.0523 0.9986 31.1561 -36.4021)" fill="#6777E5" width="3.473" height="67.001"></rect>
								<rect x="711.02" y="543.564" transform="matrix(0.9986 0.0529 -0.0529 0.9986 31.4952 -36.8195)" fill="#3F61CF" width="1.737" height="67"></rect>
								<rect x="710.884" y="545.956" transform="matrix(0.9986 0.052 -0.052 0.9986 29.3948 -36.3358)" fill="#8E5C36" width="3.472" height="0.959"></rect>
								<rect x="710.842" y="547.06" transform="matrix(0.9986 0.0523 -0.0523 0.9986 29.6089 -36.5344)" fill="#8E5C36" width="3.472" height="0.354"></rect>
								<rect x="710.931" y="545.364" transform="matrix(0.9986 0.0522 -0.0522 0.9986 29.4429 -36.4504)" fill="#8E5C36" width="3.471" height="0.354"></rect>
								<rect x="710.987" y="543.563" transform="matrix(0.9986 0.0522 -0.0522 0.9986 29.3825 -36.4497)" fill="#CFDED9" width="3.472" height="1.803"></rect>
							</g>
						</g>
						<g>
							<rect x="692" y="569" fill="#52BA9C" width="46" height="65"></rect>
							<rect x="692" y="583" fill="#FFFFFF" width="46" height="4"></rect>
							<rect x="692" y="594" fill="#FFFFFF" width="46" height="2"></rect>
							<rect x="692" y="603" fill="#FFFFFF" width="46" height="4"></rect>
							<rect x="692" y="612" fill="#FFFFFF" width="46" height="7"></rect>
						</g>
					</g>
					<g>
						<linearGradient id="SVGID_11_" gradientUnits="userSpaceOnUse" x1="606.1577" y1="630.9297" x2="607.981" y2="651.77">
							<stop offset="0" style="stop-color:#B3B3B3"></stop>
							<stop offset="0.0116" style="stop-color:#B6B6B6"></stop>
							<stop offset="0.1521" style="stop-color:#D0D0D0"></stop>
							<stop offset="0.3049" style="stop-color:#E5E5E5"></stop>
							<stop offset="0.4765" style="stop-color:#F4F4F4"></stop>
							<stop offset="0.6804" style="stop-color:#FCFCFC"></stop>
							<stop offset="1" style="stop-color:#FFFFFF"></stop>
						</linearGradient>
						<polygon fill="url(#SVGID_11_)" points="550.039,635.84 632.443,633.443 664.1,646.86 578.086,647 						"></polygon>
						<g>
							<path fill="#E6E6E6" d="M621,483.666c0,0-94.109,47-95.138,50.5S585.058,630,585.058,630h9.333
								c0,0-58.167-90.083-57.487-93.25S621,491,621,491V483.666z"></path>
							<path fill="#DBDBDB" d="M621,487.167c0,0-88.604,45.249-89.333,48.01s56.582,93.329,56.582,93.329l5.061,0.01
								c0,0-56.563-89.141-56.405-91.766S621,491,621,491V487.167z"></path>
						</g>
						<linearGradient id="SVGID_12_" gradientUnits="userSpaceOnUse" x1="602.5039" y1="510.811" x2="646.3486" y2="485.4973">
							<stop offset="0" style="stop-color:#F0F0F0"></stop>
							<stop offset="0.2542" style="stop-color:#ECECEC"></stop>
							<stop offset="0.5122" style="stop-color:#E0E0E0"></stop>
							<stop offset="0.7709" style="stop-color:#CCCCCC"></stop>
							<stop offset="1" style="stop-color:#B3B3B3"></stop>
						</linearGradient>
						<path fill="url(#SVGID_12_)" d="M616.901,476.574c-4.812-12.077,0.605-14.605,0.605-14.605c1.298-1.201,1.78-2.795,1.78-2.795
							l0.143-3.018l2.842-1.132L622.267,455h3.125l1.25,2.75c0,0,1.037,1.303,2.688,1.938c0,0,5.969,0.344,5.969,13.344
							s26.109,26.609,22.734,49.234c0,0-1.64,5.568-20.807,8.901s-23.222-0.44-23.222-0.44
							C602.494,510.957,621.712,488.649,616.901,476.574z"></path>
						<linearGradient id="SVGID_13_" gradientUnits="userSpaceOnUse" x1="550.708" y1="644.6953" x2="629.9088" y2="623.4735">
							<stop offset="0" style="stop-color:#E6E6E6"></stop>
							<stop offset="0.3639" style="stop-color:#E2E2E2"></stop>
							<stop offset="0.7326" style="stop-color:#D6D6D6"></stop>
							<stop offset="1" style="stop-color:#C8C8C8"></stop>
						</linearGradient>
						<ellipse fill="url(#SVGID_13_)" cx="590.308" cy="634.084" rx="42.417" ry="5.583"></ellipse>
					</g>
				</g>
				<g>
					<g>
						<linearGradient id="SVGID_14_" gradientUnits="userSpaceOnUse" x1="896.3682" y1="1256" x2="1364.7871" y2="1256">
							<stop offset="0" style="stop-color:#43A78D"></stop>
							<stop offset="0.0956" style="stop-color:#4AAF94"></stop>
							<stop offset="0.273" style="stop-color:#50B89A"></stop>
							<stop offset="0.5806" style="stop-color:#52BA9C"></stop>
						</linearGradient>
						<polygon fill="url(#SVGID_14_)" points="896.368,1166 913.716,1166 1364.787,1305.872 1303.294,1346 						"></polygon>
						<rect x="896.328" y="842.442" fill="#FFFFFF" width="17.585" height="323.558"></rect>
					</g>
					<path fill="#DEC5AE" d="M870.429,878.385c-65.49,0-118.571,15.537-118.571,34.701s53.081,34.703,118.571,34.703
						c65.491,0,118.572-15.539,118.572-34.703S935.92,878.385,870.429,878.385z M870.429,939.731
						c-60.238,0-109.043-11.918-109.043-26.646c0-14.727,48.805-26.645,109.043-26.645c60.212,0,109.044,11.918,109.044,26.645
						C979.473,927.813,930.641,939.731,870.429,939.731z"></path>
					<g>
						<linearGradient id="SVGID_15_" gradientUnits="userSpaceOnUse" x1="750.7593" y1="1256" x2="1219.1572" y2="1256">
							<stop offset="0" style="stop-color:#43A78D"></stop>
							<stop offset="0.0956" style="stop-color:#4AAF94"></stop>
							<stop offset="0.273" style="stop-color:#50B89A"></stop>
							<stop offset="0.5806" style="stop-color:#52BA9C"></stop>
						</linearGradient>
						<polygon fill="url(#SVGID_15_)" points="750.759,1166 768.094,1166 1219.157,1305.872 1157.664,1346 						"></polygon>
						<rect x="750.75" y="842.442" fill="#FFFFFF" width="17.585" height="323.558"></rect>
					</g>
					<g>
						<linearGradient id="SVGID_16_" gradientUnits="userSpaceOnUse" x1="845" y1="1256" x2="1313.4063" y2="1256">
							<stop offset="0" style="stop-color:#43A78D"></stop>
							<stop offset="0.0956" style="stop-color:#4AAF94"></stop>
							<stop offset="0.273" style="stop-color:#50B89A"></stop>
							<stop offset="0.5806" style="stop-color:#52BA9C"></stop>
						</linearGradient>
						<polygon fill="url(#SVGID_16_)" points="845,1166 862.335,1166 1313.406,1305.872 1251.913,1346 						"></polygon>
						<rect x="845.25" y="842.442" fill="#FFFFFF" width="17.585" height="323.558"></rect>
					</g>
					<g>
						<linearGradient id="SVGID_17_" gradientUnits="userSpaceOnUse" x1="974" y1="1256" x2="1442.4063" y2="1256">
							<stop offset="0" style="stop-color:#43A78D"></stop>
							<stop offset="0.0956" style="stop-color:#4AAF94"></stop>
							<stop offset="0.273" style="stop-color:#50B89A"></stop>
							<stop offset="0.5806" style="stop-color:#52BA9C"></stop>
						</linearGradient>
						<polygon fill="url(#SVGID_17_)" points="974,1166 991.335,1166 1442.406,1305.872 1380.913,1346 						"></polygon>
						<rect x="973.785" y="842.442" fill="#FFFFFF" width="17.584" height="323.558"></rect>
					</g>
					<ellipse fill="#DEC5AE" cx="872.23" cy="834.529" rx="125.437" ry="36.048"></ellipse>
				</g>
			</g>
		</g>
	</g>
</svg>
